<svg xmlns="http://www.w3.org/2000/svg" xmlns:xlink="http://www.w3.org/1999/xlink" width="933" zoomAndPan="magnify" viewBox="0 0 699.75 202.499994" height="270" preserveAspectRatio="xMidYMid meet" version="1.2"><defs/><g id="6988091514"><g style="fill:#004aad;fill-opacity:1;"><g transform="translate(48.402045, 128.567126)"><path style="stroke:none" d="M 20.765625 0 L 6.484375 0 L 6.484375 -62.84375 L 28.046875 -62.84375 L 42.34375 -22.546875 L 42.703125 -22.546875 L 56.359375 -62.84375 L 78.296875 -62.84375 L 78.296875 0 L 63.46875 0 L 63.828125 -44.46875 L 63.5625 -44.46875 L 47.21875 0 L 36.578125 0 L 20.6875 -44.46875 L 20.421875 -44.46875 Z M 20.765625 0 "/></g></g><g style="fill:#004aad;fill-opacity:1;"><g transform="translate(133.157869, 128.567126)"><path style="stroke:none" d="M 11.1875 21.296875 C 9.882812 21.296875 8.503906 21.207031 7.046875 21.03125 C 5.597656 20.851562 4.316406 20.617188 3.203125 20.328125 L 4.796875 8.078125 C 6.515625 8.609375 8.082031 8.875 9.5 8.875 C 10.976562 8.875 12.175781 8.648438 13.09375 8.203125 C 14.007812 7.765625 14.75 7.128906 15.3125 6.296875 C 15.875 5.472656 16.421875 4.347656 16.953125 2.921875 L 18.375 -0.703125 L -0.09375 -44.46875 L 16.0625 -44.46875 L 25.921875 -15.796875 L 26.1875 -15.796875 L 34.96875 -44.46875 L 50.421875 -44.46875 L 30.625 6.65625 C 29.382812 9.914062 27.945312 12.609375 26.3125 14.734375 C 24.6875 16.867188 22.660156 18.492188 20.234375 19.609375 C 17.804688 20.734375 14.789062 21.296875 11.1875 21.296875 Z M 11.1875 21.296875 "/></g></g><g style="fill:#004aad;fill-opacity:1;"><g transform="translate(183.478863, 128.567126)"><path style="stroke:none" d=""/></g></g><g style="fill:#004aad;fill-opacity:1;"><g transform="translate(205.666254, 128.567126)"><path style="stroke:none" d="M 37.375 1.6875 C 30.976562 1.6875 25.207031 0.28125 20.0625 -2.53125 C 14.914062 -5.34375 10.875 -9.265625 7.9375 -14.296875 C 5.007812 -19.328125 3.546875 -25.066406 3.546875 -31.515625 C 3.546875 -38.078125 5.039062 -43.859375 8.03125 -48.859375 C 11.019531 -53.859375 15.101562 -57.71875 20.28125 -60.4375 C 25.457031 -63.164062 31.242188 -64.53125 37.640625 -64.53125 C 42.191406 -64.53125 46.613281 -63.71875 50.90625 -62.09375 C 55.195312 -60.46875 58.613281 -58.203125 61.15625 -55.296875 L 50.859375 -45 C 49.503906 -46.894531 47.6875 -48.332031 45.40625 -49.3125 C 43.125 -50.289062 40.710938 -50.78125 38.171875 -50.78125 C 34.679688 -50.78125 31.554688 -49.945312 28.796875 -48.28125 C 26.046875 -46.625 23.898438 -44.332031 22.359375 -41.40625 C 20.828125 -38.476562 20.0625 -35.179688 20.0625 -31.515625 C 20.0625 -27.722656 20.816406 -24.375 22.328125 -21.46875 C 23.835938 -18.570312 25.953125 -16.3125 28.671875 -14.6875 C 31.390625 -13.0625 34.46875 -12.25 37.90625 -12.25 C 40.800781 -12.25 43.398438 -12.828125 45.703125 -13.984375 C 48.015625 -15.140625 49.851562 -16.691406 51.21875 -18.640625 L 61.78125 -8.703125 C 58.9375 -5.390625 55.441406 -2.828125 51.296875 -1.015625 C 47.160156 0.785156 42.519531 1.6875 37.375 1.6875 Z M 37.375 1.6875 "/></g></g><g style="fill:#004aad;fill-opacity:1;"><g transform="translate(265.838249, 128.567126)"><path style="stroke:none" d="M 19 1.0625 C 16.394531 1.0625 13.878906 0.601562 11.453125 -0.3125 C 9.023438 -1.226562 6.992188 -2.722656 5.359375 -4.796875 C 3.734375 -6.867188 2.921875 -9.53125 2.921875 -12.78125 C 2.921875 -22.71875 12.300781 -27.6875 31.0625 -27.6875 L 31.328125 -27.6875 L 31.328125 -28.40625 C 31.328125 -30.476562 30.585938 -32.0625 29.109375 -33.15625 C 27.628906 -34.25 25.707031 -34.796875 23.34375 -34.796875 C 21.332031 -34.796875 19.363281 -34.363281 17.4375 -33.5 C 15.519531 -32.644531 13.847656 -31.566406 12.421875 -30.265625 L 5.0625 -38.171875 C 7.601562 -40.597656 10.601562 -42.445312 14.0625 -43.71875 C 17.53125 -44.988281 21.097656 -45.625 24.765625 -45.625 C 29.679688 -45.625 33.628906 -44.796875 36.609375 -43.140625 C 39.597656 -41.484375 41.757812 -38.953125 43.09375 -35.546875 C 44.425781 -32.148438 45.09375 -27.726562 45.09375 -22.28125 L 45.09375 0 L 31.78125 0 L 31.78125 -4.703125 L 31.515625 -4.703125 C 30.441406 -2.929688 28.75 -1.523438 26.4375 -0.484375 C 24.132812 0.546875 21.65625 1.0625 19 1.0625 Z M 22.640625 -8.703125 C 25.535156 -8.703125 27.78125 -9.515625 29.375 -11.140625 C 30.976562 -12.765625 31.78125 -14.96875 31.78125 -17.75 L 31.78125 -19.265625 L 29.90625 -19.265625 C 25.945312 -19.265625 22.691406 -18.847656 20.140625 -18.015625 C 17.597656 -17.191406 16.328125 -15.59375 16.328125 -13.21875 C 16.328125 -11.6875 16.945312 -10.550781 18.1875 -9.8125 C 19.4375 -9.070312 20.921875 -8.703125 22.640625 -8.703125 Z M 22.640625 -8.703125 "/></g></g><g style="fill:#004aad;fill-opacity:1;"><g transform="translate(316.070508, 128.567126)"><path style="stroke:none" d="M 5.6875 -33.203125 L 5.6875 -44.46875 L 19.703125 -44.46875 L 19.703125 -38.078125 L 19.890625 -38.078125 C 21.003906 -40.390625 22.628906 -42.238281 24.765625 -43.625 C 26.898438 -45.019531 29.265625 -45.71875 31.859375 -45.71875 C 33.285156 -45.71875 34.320312 -45.597656 34.96875 -45.359375 L 34.359375 -32.578125 C 33.234375 -32.867188 31.988281 -33.015625 30.625 -33.015625 C 28.195312 -33.015625 26.210938 -32.46875 24.671875 -31.375 C 23.140625 -30.28125 22.015625 -28.960938 21.296875 -27.421875 C 20.585938 -25.890625 20.234375 -24.410156 20.234375 -22.984375 L 20.234375 0 L 5.6875 0 Z M 5.6875 -33.203125 "/></g></g><g style="fill:#004aad;fill-opacity:1;"><g transform="translate(351.215326, 128.567126)"><path style="stroke:none" d=""/></g></g><g style="fill:#004aad;fill-opacity:1;"><g transform="translate(373.402705, 128.567126)"><path style="stroke:none" d="M 36.75 0 C 30.0625 0 24.1875 -1.253906 19.125 -3.765625 C 14.070312 -6.285156 10.15625 -9.972656 7.375 -14.828125 C 4.59375 -19.679688 3.203125 -25.476562 3.203125 -32.21875 C 3.203125 -38.488281 4.679688 -44.066406 7.640625 -48.953125 C 10.597656 -53.835938 14.664062 -57.65625 19.84375 -60.40625 C 25.019531 -63.15625 30.832031 -64.53125 37.28125 -64.53125 C 43.726562 -64.53125 49.523438 -63.164062 54.671875 -60.4375 C 59.828125 -57.71875 63.851562 -53.929688 66.75 -49.078125 C 69.644531 -44.234375 71.09375 -38.703125 71.09375 -32.484375 C 71.09375 -29.472656 70.648438 -26.632812 69.765625 -23.96875 C 68.878906 -21.300781 67.722656 -18.960938 66.296875 -16.953125 C 64.878906 -14.941406 63.375 -13.316406 61.78125 -12.078125 L 61.78125 -11.8125 L 75 -12.078125 L 75 0 Z M 37.1875 -12.953125 C 40.5625 -12.953125 43.609375 -13.765625 46.328125 -15.390625 C 49.054688 -17.023438 51.1875 -19.273438 52.71875 -22.140625 C 54.257812 -25.015625 55.03125 -28.316406 55.03125 -32.046875 C 55.03125 -35.648438 54.273438 -38.875 52.765625 -41.71875 C 51.253906 -44.5625 49.15625 -46.78125 46.46875 -48.375 C 43.78125 -49.976562 40.71875 -50.78125 37.28125 -50.78125 C 33.96875 -50.78125 30.945312 -49.976562 28.21875 -48.375 C 25.5 -46.78125 23.367188 -44.5625 21.828125 -41.71875 C 20.296875 -38.875 19.53125 -35.648438 19.53125 -32.046875 C 19.53125 -28.316406 20.285156 -25 21.796875 -22.09375 C 23.304688 -19.195312 25.390625 -16.945312 28.046875 -15.34375 C 30.710938 -13.75 33.757812 -12.953125 37.1875 -12.953125 Z M 37.1875 -12.953125 "/></g></g><g style="fill:#004aad;fill-opacity:1;"><g transform="translate(449.461095, 128.567126)"><path style="stroke:none" d="M 21.296875 1.25 C 17.578125 1.25 14.503906 0.390625 12.078125 -1.328125 C 9.648438 -3.046875 7.898438 -5.265625 6.828125 -7.984375 C 5.765625 -10.710938 5.234375 -13.671875 5.234375 -16.859375 L 5.234375 -44.46875 L 19.890625 -44.46875 L 19.890625 -20.234375 C 19.890625 -17.398438 20.375 -15.125 21.34375 -13.40625 C 22.320312 -11.6875 24.023438 -10.828125 26.453125 -10.828125 C 28.109375 -10.828125 29.515625 -11.253906 30.671875 -12.109375 C 31.828125 -12.972656 32.710938 -14.128906 33.328125 -15.578125 C 33.953125 -17.023438 34.265625 -18.609375 34.265625 -20.328125 L 34.265625 -44.46875 L 48.828125 -44.46875 L 48.828125 0 L 34.796875 0 L 34.796875 -6.125 L 34.625 -6.125 C 33.90625 -4.757812 32.894531 -3.53125 31.59375 -2.4375 C 30.289062 -1.34375 28.753906 -0.457031 26.984375 0.21875 C 25.210938 0.90625 23.316406 1.25 21.296875 1.25 Z M 21.296875 1.25 "/></g></g><g style="fill:#004aad;fill-opacity:1;"><g transform="translate(503.953312, 128.567126)"><path style="stroke:none" d="M 27.96875 1.421875 C 23.519531 1.421875 19.414062 0.445312 15.65625 -1.5 C 11.90625 -3.457031 8.9375 -6.238281 6.75 -9.84375 C 4.5625 -13.457031 3.46875 -17.601562 3.46875 -22.28125 C 3.46875 -26.957031 4.5625 -31.066406 6.75 -34.609375 C 8.9375 -38.160156 11.894531 -40.882812 15.625 -42.78125 C 19.351562 -44.675781 23.46875 -45.625 27.96875 -45.625 C 32.457031 -45.625 36.582031 -44.675781 40.34375 -42.78125 C 44.101562 -40.882812 47.078125 -38.160156 49.265625 -34.609375 C 51.453125 -31.066406 52.546875 -26.957031 52.546875 -22.28125 C 52.546875 -17.601562 51.4375 -13.457031 49.21875 -9.84375 C 47 -6.238281 44.023438 -3.457031 40.296875 -1.5 C 36.566406 0.445312 32.457031 1.421875 27.96875 1.421875 Z M 28.046875 -10.828125 C 30.234375 -10.828125 32.109375 -11.375 33.671875 -12.46875 C 35.242188 -13.5625 36.445312 -14.976562 37.28125 -16.71875 C 38.113281 -18.46875 38.53125 -20.320312 38.53125 -22.28125 C 38.53125 -24.226562 38.113281 -26.0625 37.28125 -27.78125 C 36.445312 -29.5 35.234375 -30.890625 33.640625 -31.953125 C 32.046875 -33.015625 30.15625 -33.546875 27.96875 -33.546875 C 25.769531 -33.546875 23.882812 -33.015625 22.3125 -31.953125 C 20.75 -30.890625 19.566406 -29.5 18.765625 -27.78125 C 17.972656 -26.0625 17.578125 -24.226562 17.578125 -22.28125 C 17.578125 -20.320312 17.988281 -18.46875 18.8125 -16.71875 C 19.644531 -14.976562 20.84375 -13.5625 22.40625 -12.46875 C 23.976562 -11.375 25.859375 -10.828125 28.046875 -10.828125 Z M 28.046875 -10.828125 "/></g></g><g style="fill:#004aad;fill-opacity:1;"><g transform="translate(560.043025, 128.567126)"><path style="stroke:none" d="M 22.984375 1.0625 C 17.367188 1.0625 13.347656 -0.296875 10.921875 -3.015625 C 8.492188 -5.734375 7.28125 -9.609375 7.28125 -14.640625 L 7.28125 -33.546875 L 0.171875 -33.546875 L 0.171875 -44.46875 L 7.1875 -44.46875 L 7.1875 -56.015625 L 21.484375 -56.015625 L 21.484375 -44.46875 L 31.859375 -44.46875 L 31.859375 -33.546875 L 21.484375 -33.546875 L 21.484375 -16.421875 C 21.484375 -14.285156 21.894531 -12.710938 22.71875 -11.703125 C 23.550781 -10.703125 24.972656 -10.203125 26.984375 -10.203125 C 27.691406 -10.203125 28.445312 -10.257812 29.25 -10.375 C 30.050781 -10.5 30.71875 -10.679688 31.25 -10.921875 L 31.421875 -0.265625 C 30.410156 0.0859375 29.117188 0.394531 27.546875 0.65625 C 25.984375 0.925781 24.460938 1.0625 22.984375 1.0625 Z M 22.984375 1.0625 "/></g></g><g style="fill:#004aad;fill-opacity:1;"><g transform="translate(593.057864, 128.567126)"><path style="stroke:none" d="M 27.78125 1.421875 C 23.28125 1.421875 19.179688 0.503906 15.484375 -1.328125 C 11.785156 -3.160156 8.859375 -5.851562 6.703125 -9.40625 C 4.546875 -12.957031 3.46875 -17.128906 3.46875 -21.921875 C 3.46875 -26.660156 4.515625 -30.816406 6.609375 -34.390625 C 8.710938 -37.972656 11.566406 -40.738281 15.171875 -42.6875 C 18.785156 -44.644531 22.84375 -45.625 27.34375 -45.625 C 31.71875 -45.625 35.578125 -44.660156 38.921875 -42.734375 C 42.265625 -40.816406 44.867188 -38.035156 46.734375 -34.390625 C 48.597656 -30.753906 49.53125 -26.476562 49.53125 -21.5625 C 49.53125 -19.96875 49.5 -18.816406 49.4375 -18.109375 L 17.390625 -18.109375 C 17.515625 -16.515625 18.09375 -15.078125 19.125 -13.796875 C 20.164062 -12.523438 21.46875 -11.535156 23.03125 -10.828125 C 24.601562 -10.117188 26.25 -9.765625 27.96875 -9.765625 C 30.15625 -9.765625 32.0625 -10.175781 33.6875 -11 C 35.3125 -11.832031 36.65625 -12.957031 37.71875 -14.375 L 47.84375 -7.984375 C 45.71875 -4.972656 42.953125 -2.648438 39.546875 -1.015625 C 36.140625 0.609375 32.21875 1.421875 27.78125 1.421875 Z M 36.125 -27.15625 C 36.125 -28.757812 35.796875 -30.195312 35.140625 -31.46875 C 34.492188 -32.738281 33.503906 -33.742188 32.171875 -34.484375 C 30.847656 -35.222656 29.265625 -35.59375 27.421875 -35.59375 C 25.585938 -35.59375 23.929688 -35.207031 22.453125 -34.4375 C 20.972656 -33.664062 19.789062 -32.644531 18.90625 -31.375 C 18.019531 -30.101562 17.515625 -28.695312 17.390625 -27.15625 Z M 36.125 -27.15625 "/></g></g><g style="fill:#ff3131;fill-opacity:1;"><g transform="translate(317.700808, 168.25136)"><path style="stroke:none" d="M 18.90625 -25.59375 L 18.90625 -23.109375 L 6.875 -23.109375 L 6.875 -13.796875 L 17.703125 -13.796875 L 17.703125 -11.296875 L 6.875 -11.296875 L 6.875 0 L 3.875 0 L 3.875 -25.59375 Z M 18.90625 -25.59375 "/></g></g><g style="fill:#ff3131;fill-opacity:1;"><g transform="translate(336.806317, 168.25136)"><path style="stroke:none" d="M 7.96875 0.375 C 6.0625 0.375 4.570312 -0.117188 3.5 -1.109375 C 2.4375 -2.109375 1.90625 -3.53125 1.90625 -5.375 C 1.90625 -6.519531 2.140625 -7.484375 2.609375 -8.265625 C 3.085938 -9.054688 3.820312 -9.695312 4.8125 -10.1875 C 5.800781 -10.6875 7.097656 -11.070312 8.703125 -11.34375 C 10.097656 -11.582031 11.160156 -11.847656 11.890625 -12.140625 C 12.617188 -12.429688 13.109375 -12.753906 13.359375 -13.109375 C 13.617188 -13.472656 13.75 -13.929688 13.75 -14.484375 C 13.75 -15.359375 13.445312 -16.023438 12.84375 -16.484375 C 12.238281 -16.953125 11.273438 -17.1875 9.953125 -17.1875 C 8.703125 -17.1875 7.628906 -16.941406 6.734375 -16.453125 C 5.835938 -15.972656 5.015625 -15.257812 4.265625 -14.3125 L 3.921875 -14.3125 L 2.515625 -16.28125 C 3.335938 -17.320312 4.378906 -18.148438 5.640625 -18.765625 C 6.898438 -19.378906 8.335938 -19.6875 9.953125 -19.6875 C 12.222656 -19.6875 13.894531 -19.1875 14.96875 -18.1875 C 16.050781 -17.1875 16.59375 -15.804688 16.59375 -14.046875 L 16.59375 -3.796875 C 16.59375 -2.722656 17.050781 -2.1875 17.96875 -2.1875 C 18.269531 -2.1875 18.5625 -2.238281 18.84375 -2.34375 L 19.078125 -2.28125 L 19.421875 -0.296875 C 19.210938 -0.160156 18.929688 -0.0546875 18.578125 0.015625 C 18.234375 0.0976562 17.882812 0.140625 17.53125 0.140625 C 16.46875 0.140625 15.664062 -0.09375 15.125 -0.5625 C 14.582031 -1.03125 14.234375 -1.71875 14.078125 -2.625 L 13.703125 -2.65625 C 13.160156 -1.644531 12.421875 -0.882812 11.484375 -0.375 C 10.546875 0.125 9.375 0.375 7.96875 0.375 Z M 8.59375 -1.90625 C 9.664062 -1.90625 10.597656 -2.148438 11.390625 -2.640625 C 12.179688 -3.140625 12.785156 -3.835938 13.203125 -4.734375 C 13.617188 -5.640625 13.828125 -6.679688 13.828125 -7.859375 L 13.828125 -10.3125 L 13.5 -10.390625 C 13.070312 -10.078125 12.546875 -9.816406 11.921875 -9.609375 C 11.304688 -9.410156 10.441406 -9.226562 9.328125 -9.0625 C 8.210938 -8.914062 7.320312 -8.679688 6.65625 -8.359375 C 6 -8.046875 5.53125 -7.644531 5.25 -7.15625 C 4.96875 -6.675781 4.828125 -6.082031 4.828125 -5.375 C 4.828125 -4.238281 5.160156 -3.375 5.828125 -2.78125 C 6.492188 -2.195312 7.414062 -1.90625 8.59375 -1.90625 Z M 8.59375 -1.90625 "/></g></g><g style="fill:#ff3131;fill-opacity:1;"><g transform="translate(356.769985, 168.25136)"><path style="stroke:none" d="M 8.8125 0.375 C 7.59375 0.375 6.46875 0.210938 5.4375 -0.109375 C 4.40625 -0.429688 3.53125 -0.875 2.8125 -1.4375 C 2.101562 -2 1.601562 -2.628906 1.3125 -3.328125 L 3 -5.078125 L 3.359375 -5.078125 C 3.992188 -4.117188 4.753906 -3.394531 5.640625 -2.90625 C 6.523438 -2.425781 7.582031 -2.1875 8.8125 -2.1875 C 10.226562 -2.1875 11.304688 -2.460938 12.046875 -3.015625 C 12.796875 -3.578125 13.171875 -4.351562 13.171875 -5.34375 C 13.171875 -6.101562 12.941406 -6.726562 12.484375 -7.21875 C 12.035156 -7.71875 11.3125 -8.085938 10.3125 -8.328125 L 7.0625 -9.140625 C 5.320312 -9.554688 4.050781 -10.21875 3.25 -11.125 C 2.445312 -12.039062 2.046875 -13.171875 2.046875 -14.515625 C 2.046875 -15.566406 2.3125 -16.476562 2.84375 -17.25 C 3.382812 -18.03125 4.160156 -18.628906 5.171875 -19.046875 C 6.179688 -19.472656 7.378906 -19.6875 8.765625 -19.6875 C 10.546875 -19.6875 11.945312 -19.4375 12.96875 -18.9375 C 13.988281 -18.4375 14.785156 -17.742188 15.359375 -16.859375 L 13.75 -15.28125 L 13.390625 -15.28125 C 12.773438 -16 12.101562 -16.515625 11.375 -16.828125 C 10.644531 -17.140625 9.773438 -17.296875 8.765625 -17.296875 C 7.492188 -17.296875 6.519531 -17.066406 5.84375 -16.609375 C 5.164062 -16.160156 4.828125 -15.503906 4.828125 -14.640625 C 4.828125 -13.859375 5.066406 -13.226562 5.546875 -12.75 C 6.023438 -12.269531 6.859375 -11.882812 8.046875 -11.59375 L 11.265625 -10.828125 C 12.941406 -10.421875 14.148438 -9.753906 14.890625 -8.828125 C 15.640625 -7.910156 16.015625 -6.757812 16.015625 -5.375 C 16.015625 -4.238281 15.742188 -3.238281 15.203125 -2.375 C 14.671875 -1.507812 13.863281 -0.832031 12.78125 -0.34375 C 11.695312 0.132812 10.375 0.375 8.8125 0.375 Z M 8.8125 0.375 "/></g></g><g style="fill:#ff3131;fill-opacity:1;"><g transform="translate(374.616546, 168.25136)"><path style="stroke:none" d="M 13.0625 -3.0625 L 13.96875 -1.015625 C 13.519531 -0.554688 12.921875 -0.210938 12.171875 0.015625 C 11.429688 0.253906 10.628906 0.375 9.765625 0.375 C 6.078125 0.375 4.234375 -1.492188 4.234375 -5.234375 L 4.234375 -16.984375 L 0.875 -16.984375 L 0.875 -19.328125 L 4.234375 -19.328125 L 4.234375 -23.40625 L 7.09375 -23.890625 L 7.09375 -19.328125 L 13.3125 -19.328125 L 13.3125 -16.984375 L 7.09375 -16.984375 L 7.09375 -5.515625 C 7.09375 -3.296875 8.054688 -2.1875 9.984375 -2.1875 C 11.035156 -2.1875 11.9375 -2.476562 12.6875 -3.0625 Z M 13.0625 -3.0625 "/></g></g><g style="fill:#ff3131;fill-opacity:1;"><g transform="translate(389.313715, 168.25136)"><path style="stroke:none" d=""/></g></g><g style="fill:#ff3131;fill-opacity:1;"><g transform="translate(398.097023, 168.25136)"><path style="stroke:none" d="M 3.875 0 L 3.875 -25.59375 L 13.171875 -25.59375 C 14.878906 -25.59375 16.316406 -25.3125 17.484375 -24.75 C 18.660156 -24.1875 19.539062 -23.382812 20.125 -22.34375 C 20.707031 -21.3125 21 -20.09375 21 -18.6875 C 21 -17.09375 20.597656 -15.78125 19.796875 -14.75 C 19.003906 -13.71875 17.769531 -12.945312 16.09375 -12.4375 L 16.09375 -12.0625 C 16.914062 -11.738281 17.585938 -11.222656 18.109375 -10.515625 C 18.640625 -9.816406 19.128906 -8.773438 19.578125 -7.390625 L 21.9375 0 L 18.84375 0 L 16.28125 -7.828125 C 15.976562 -8.742188 15.628906 -9.460938 15.234375 -9.984375 C 14.835938 -10.515625 14.332031 -10.894531 13.71875 -11.125 C 13.113281 -11.363281 12.347656 -11.484375 11.421875 -11.484375 L 6.875 -11.484375 L 6.875 0 Z M 13.09375 -14.046875 C 14.695312 -14.046875 15.890625 -14.414062 16.671875 -15.15625 C 17.453125 -15.894531 17.84375 -17.023438 17.84375 -18.546875 C 17.84375 -20.054688 17.453125 -21.179688 16.671875 -21.921875 C 15.890625 -22.671875 14.695312 -23.046875 13.09375 -23.046875 L 6.875 -23.046875 L 6.875 -14.046875 Z M 13.09375 -14.046875 "/></g></g><g style="fill:#ff3131;fill-opacity:1;"><g transform="translate(421.279692, 168.25136)"><path style="stroke:none" d="M 18.40625 -9 L 5.125 -9 C 5.207031 -6.65625 5.769531 -4.929688 6.8125 -3.828125 C 7.863281 -2.734375 9.300781 -2.1875 11.125 -2.1875 C 12.5 -2.1875 13.601562 -2.429688 14.4375 -2.921875 C 15.28125 -3.410156 15.941406 -4.179688 16.421875 -5.234375 L 16.796875 -5.234375 L 18.640625 -4.125 C 18.085938 -2.726562 17.191406 -1.628906 15.953125 -0.828125 C 14.722656 -0.0234375 13.113281 0.375 11.125 0.375 C 9.25 0.375 7.640625 0.00390625 6.296875 -0.734375 C 4.960938 -1.472656 3.929688 -2.585938 3.203125 -4.078125 C 2.484375 -5.578125 2.125 -7.429688 2.125 -9.640625 C 2.125 -11.835938 2.503906 -13.6875 3.265625 -15.1875 C 4.023438 -16.695312 5.066406 -17.820312 6.390625 -18.5625 C 7.722656 -19.3125 9.238281 -19.6875 10.9375 -19.6875 C 13.414062 -19.6875 15.347656 -18.988281 16.734375 -17.59375 C 18.128906 -16.195312 18.832031 -14.125 18.84375 -11.375 C 18.84375 -10.300781 18.816406 -9.578125 18.765625 -9.203125 Z M 16.015625 -11.375 C 15.972656 -13.4375 15.519531 -14.929688 14.65625 -15.859375 C 13.789062 -16.796875 12.550781 -17.265625 10.9375 -17.265625 C 9.25 -17.265625 7.921875 -16.789062 6.953125 -15.84375 C 5.992188 -14.90625 5.410156 -13.414062 5.203125 -11.375 Z M 16.015625 -11.375 "/></g></g><g style="fill:#ff3131;fill-opacity:1;"><g transform="translate(441.855728, 168.25136)"><path style="stroke:none" d="M 3.359375 7.828125 L 3.359375 -19.3125 L 6.21875 -19.3125 L 6.21875 -16.421875 L 6.578125 -16.359375 C 8.015625 -18.578125 10.125 -19.6875 12.90625 -19.6875 C 14.519531 -19.6875 15.925781 -19.316406 17.125 -18.578125 C 18.320312 -17.835938 19.253906 -16.71875 19.921875 -15.21875 C 20.585938 -13.71875 20.921875 -11.859375 20.921875 -9.640625 C 20.921875 -7.441406 20.570312 -5.59375 19.875 -4.09375 C 19.175781 -2.601562 18.207031 -1.484375 16.96875 -0.734375 C 15.726562 0.00390625 14.300781 0.375 12.6875 0.375 C 11.382812 0.375 10.222656 0.144531 9.203125 -0.3125 C 8.191406 -0.769531 7.316406 -1.519531 6.578125 -2.5625 L 6.21875 -2.484375 L 6.21875 7.828125 Z M 12.0625 -2.1875 C 15.976562 -2.1875 17.9375 -4.671875 17.9375 -9.640625 C 17.9375 -14.628906 15.976562 -17.125 12.0625 -17.125 C 10.914062 -17.125 9.90625 -16.859375 9.03125 -16.328125 C 8.15625 -15.804688 7.46875 -14.988281 6.96875 -13.875 C 6.46875 -12.757812 6.21875 -11.347656 6.21875 -9.640625 C 6.21875 -7.953125 6.46875 -6.550781 6.96875 -5.4375 C 7.46875 -4.320312 8.15625 -3.5 9.03125 -2.96875 C 9.90625 -2.445312 10.914062 -2.1875 12.0625 -2.1875 Z M 12.0625 -2.1875 "/></g></g><g style="fill:#ff3131;fill-opacity:1;"><g transform="translate(464.881292, 168.25136)"><path style="stroke:none" d="M 7.96875 0.375 C 6.0625 0.375 4.570312 -0.117188 3.5 -1.109375 C 2.4375 -2.109375 1.90625 -3.53125 1.90625 -5.375 C 1.90625 -6.519531 2.140625 -7.484375 2.609375 -8.265625 C 3.085938 -9.054688 3.820312 -9.695312 4.8125 -10.1875 C 5.800781 -10.6875 7.097656 -11.070312 8.703125 -11.34375 C 10.097656 -11.582031 11.160156 -11.847656 11.890625 -12.140625 C 12.617188 -12.429688 13.109375 -12.753906 13.359375 -13.109375 C 13.617188 -13.472656 13.75 -13.929688 13.75 -14.484375 C 13.75 -15.359375 13.445312 -16.023438 12.84375 -16.484375 C 12.238281 -16.953125 11.273438 -17.1875 9.953125 -17.1875 C 8.703125 -17.1875 7.628906 -16.941406 6.734375 -16.453125 C 5.835938 -15.972656 5.015625 -15.257812 4.265625 -14.3125 L 3.921875 -14.3125 L 2.515625 -16.28125 C 3.335938 -17.320312 4.378906 -18.148438 5.640625 -18.765625 C 6.898438 -19.378906 8.335938 -19.6875 9.953125 -19.6875 C 12.222656 -19.6875 13.894531 -19.1875 14.96875 -18.1875 C 16.050781 -17.1875 16.59375 -15.804688 16.59375 -14.046875 L 16.59375 -3.796875 C 16.59375 -2.722656 17.050781 -2.1875 17.96875 -2.1875 C 18.269531 -2.1875 18.5625 -2.238281 18.84375 -2.34375 L 19.078125 -2.28125 L 19.421875 -0.296875 C 19.210938 -0.160156 18.929688 -0.0546875 18.578125 0.015625 C 18.234375 0.0976562 17.882812 0.140625 17.53125 0.140625 C 16.46875 0.140625 15.664062 -0.09375 15.125 -0.5625 C 14.582031 -1.03125 14.234375 -1.71875 14.078125 -2.625 L 13.703125 -2.65625 C 13.160156 -1.644531 12.421875 -0.882812 11.484375 -0.375 C 10.546875 0.125 9.375 0.375 7.96875 0.375 Z M 8.59375 -1.90625 C 9.664062 -1.90625 10.597656 -2.148438 11.390625 -2.640625 C 12.179688 -3.140625 12.785156 -3.835938 13.203125 -4.734375 C 13.617188 -5.640625 13.828125 -6.679688 13.828125 -7.859375 L 13.828125 -10.3125 L 13.5 -10.390625 C 13.070312 -10.078125 12.546875 -9.816406 11.921875 -9.609375 C 11.304688 -9.410156 10.441406 -9.226562 9.328125 -9.0625 C 8.210938 -8.914062 7.320312 -8.679688 6.65625 -8.359375 C 6 -8.046875 5.53125 -7.644531 5.25 -7.15625 C 4.96875 -6.675781 4.828125 -6.082031 4.828125 -5.375 C 4.828125 -4.238281 5.160156 -3.375 5.828125 -2.78125 C 6.492188 -2.195312 7.414062 -1.90625 8.59375 -1.90625 Z M 8.59375 -1.90625 "/></g></g><g style="fill:#ff3131;fill-opacity:1;"><g transform="translate(484.844959, 168.25136)"><path style="stroke:none" d="M 4.796875 -23.046875 C 4.191406 -23.046875 3.695312 -23.234375 3.3125 -23.609375 C 2.9375 -23.992188 2.75 -24.476562 2.75 -25.0625 C 2.75 -25.644531 2.9375 -26.125 3.3125 -26.5 C 3.695312 -26.875 4.191406 -27.0625 4.796875 -27.0625 C 5.398438 -27.0625 5.890625 -26.875 6.265625 -26.5 C 6.648438 -26.125 6.84375 -25.644531 6.84375 -25.0625 C 6.84375 -24.476562 6.648438 -23.992188 6.265625 -23.609375 C 5.890625 -23.234375 5.398438 -23.046875 4.796875 -23.046875 Z M 3.359375 0 L 3.359375 -19.3125 L 6.21875 -19.3125 L 6.21875 0 Z M 3.359375 0 "/></g></g><g style="fill:#ff3131;fill-opacity:1;"><g transform="translate(494.415629, 168.25136)"><path style="stroke:none" d="M 3.359375 0 L 3.359375 -19.3125 L 6.078125 -19.3125 L 6.078125 -16.28125 L 6.4375 -16.203125 C 7.34375 -18.390625 9.035156 -19.484375 11.515625 -19.484375 C 12.835938 -19.484375 13.828125 -19.242188 14.484375 -18.765625 L 13.75 -16.359375 L 13.390625 -16.28125 C 12.671875 -16.644531 11.878906 -16.828125 11.015625 -16.828125 C 9.472656 -16.828125 8.285156 -16.25 7.453125 -15.09375 C 6.628906 -13.9375 6.21875 -12.0625 6.21875 -9.46875 L 6.21875 0 Z M 3.359375 0 "/></g></g><g style="fill:#ff3131;fill-opacity:1;"><g transform="translate(509.322757, 168.25136)"><path style="stroke:none" d=""/></g></g><g style="fill:#ff3131;fill-opacity:1;"><g transform="translate(518.106065, 168.25136)"><path style="stroke:none" d="M 20.59375 5.96875 C 18.46875 5.96875 16.695312 5.476562 15.28125 4.5 C 13.863281 3.519531 12.867188 2.109375 12.296875 0.265625 C 10.367188 0.015625 8.675781 -0.617188 7.21875 -1.640625 C 5.769531 -2.671875 4.628906 -4.125 3.796875 -6 C 2.972656 -7.875 2.5625 -10.140625 2.5625 -12.796875 C 2.5625 -15.722656 3.054688 -18.171875 4.046875 -20.140625 C 5.035156 -22.109375 6.394531 -23.570312 8.125 -24.53125 C 9.851562 -25.488281 11.828125 -25.96875 14.046875 -25.96875 C 16.265625 -25.96875 18.234375 -25.488281 19.953125 -24.53125 C 21.679688 -23.570312 23.039062 -22.109375 24.03125 -20.140625 C 25.03125 -18.171875 25.53125 -15.722656 25.53125 -12.796875 C 25.53125 -8.796875 24.625 -5.742188 22.8125 -3.640625 C 21 -1.535156 18.523438 -0.300781 15.390625 0.0625 L 15.28125 0.4375 C 15.707031 1.40625 16.390625 2.132812 17.328125 2.625 C 18.265625 3.113281 19.363281 3.359375 20.625 3.359375 C 21.269531 3.359375 21.867188 3.273438 22.421875 3.109375 L 22.78125 3.1875 L 23.21875 5.515625 C 22.519531 5.816406 21.644531 5.96875 20.59375 5.96875 Z M 14.046875 -2.421875 C 16.703125 -2.421875 18.742188 -3.25 20.171875 -4.90625 C 21.597656 -6.570312 22.3125 -9.203125 22.3125 -12.796875 C 22.3125 -16.390625 21.597656 -19.019531 20.171875 -20.6875 C 18.742188 -22.351562 16.703125 -23.1875 14.046875 -23.1875 C 8.535156 -23.1875 5.78125 -19.722656 5.78125 -12.796875 C 5.78125 -5.878906 8.535156 -2.421875 14.046875 -2.421875 Z M 14.046875 -2.421875 "/></g></g><g style="fill:#ff3131;fill-opacity:1;"><g transform="translate(546.170658, 168.25136)"><path style="stroke:none" d="M 9.546875 0.375 C 7.359375 0.375 5.726562 -0.203125 4.65625 -1.359375 C 3.59375 -2.515625 3.0625 -4.207031 3.0625 -6.4375 L 3.0625 -19.3125 L 5.921875 -19.3125 L 5.921875 -6.515625 C 5.921875 -3.585938 7.296875 -2.125 10.046875 -2.125 C 11.796875 -2.125 13.175781 -2.691406 14.1875 -3.828125 C 15.207031 -4.972656 15.71875 -6.832031 15.71875 -9.40625 L 15.71875 -19.3125 L 18.578125 -19.3125 L 18.578125 0 L 15.875 0 L 15.875 -3.03125 L 15.515625 -3.109375 C 14.847656 -1.929688 14.050781 -1.054688 13.125 -0.484375 C 12.195312 0.0859375 11.003906 0.375 9.546875 0.375 Z M 9.546875 0.375 "/></g></g><g style="fill:#ff3131;fill-opacity:1;"><g transform="translate(568.093948, 168.25136)"><path style="stroke:none" d="M 11.078125 0.375 C 9.265625 0.375 7.679688 -0.0078125 6.328125 -0.78125 C 4.984375 -1.550781 3.945312 -2.6875 3.21875 -4.1875 C 2.488281 -5.6875 2.125 -7.503906 2.125 -9.640625 C 2.125 -11.785156 2.488281 -13.609375 3.21875 -15.109375 C 3.945312 -16.617188 4.984375 -17.757812 6.328125 -18.53125 C 7.679688 -19.300781 9.265625 -19.6875 11.078125 -19.6875 C 12.898438 -19.6875 14.484375 -19.300781 15.828125 -18.53125 C 17.179688 -17.757812 18.222656 -16.617188 18.953125 -15.109375 C 19.679688 -13.609375 20.046875 -11.785156 20.046875 -9.640625 C 20.046875 -7.503906 19.679688 -5.6875 18.953125 -4.1875 C 18.222656 -2.6875 17.179688 -1.550781 15.828125 -0.78125 C 14.484375 -0.0078125 12.898438 0.375 11.078125 0.375 Z M 11.078125 -2.1875 C 13.003906 -2.1875 14.476562 -2.789062 15.5 -4 C 16.519531 -5.21875 17.03125 -7.097656 17.03125 -9.640625 C 17.03125 -12.203125 16.519531 -14.085938 15.5 -15.296875 C 14.476562 -16.515625 13.003906 -17.125 11.078125 -17.125 C 9.148438 -17.125 7.671875 -16.515625 6.640625 -15.296875 C 5.617188 -14.078125 5.109375 -12.191406 5.109375 -9.640625 C 5.109375 -7.097656 5.617188 -5.21875 6.640625 -4 C 7.671875 -2.789062 9.148438 -2.1875 11.078125 -2.1875 Z M 11.078125 -2.1875 "/></g></g><g style="fill:#ff3131;fill-opacity:1;"><g transform="translate(590.24468, 168.25136)"><path style="stroke:none" d="M 13.0625 -3.0625 L 13.96875 -1.015625 C 13.519531 -0.554688 12.921875 -0.210938 12.171875 0.015625 C 11.429688 0.253906 10.628906 0.375 9.765625 0.375 C 6.078125 0.375 4.234375 -1.492188 4.234375 -5.234375 L 4.234375 -16.984375 L 0.875 -16.984375 L 0.875 -19.328125 L 4.234375 -19.328125 L 4.234375 -23.40625 L 7.09375 -23.890625 L 7.09375 -19.328125 L 13.3125 -19.328125 L 13.3125 -16.984375 L 7.09375 -16.984375 L 7.09375 -5.515625 C 7.09375 -3.296875 8.054688 -2.1875 9.984375 -2.1875 C 11.035156 -2.1875 11.9375 -2.476562 12.6875 -3.0625 Z M 13.0625 -3.0625 "/></g></g><g style="fill:#ff3131;fill-opacity:1;"><g transform="translate(604.714244, 168.25136)"><path style="stroke:none" d="M 18.40625 -9 L 5.125 -9 C 5.207031 -6.65625 5.769531 -4.929688 6.8125 -3.828125 C 7.863281 -2.734375 9.300781 -2.1875 11.125 -2.1875 C 12.5 -2.1875 13.601562 -2.429688 14.4375 -2.921875 C 15.28125 -3.410156 15.941406 -4.179688 16.421875 -5.234375 L 16.796875 -5.234375 L 18.640625 -4.125 C 18.085938 -2.726562 17.191406 -1.628906 15.953125 -0.828125 C 14.722656 -0.0234375 13.113281 0.375 11.125 0.375 C 9.25 0.375 7.640625 0.00390625 6.296875 -0.734375 C 4.960938 -1.472656 3.929688 -2.585938 3.203125 -4.078125 C 2.484375 -5.578125 2.125 -7.429688 2.125 -9.640625 C 2.125 -11.835938 2.503906 -13.6875 3.265625 -15.1875 C 4.023438 -16.695312 5.066406 -17.820312 6.390625 -18.5625 C 7.722656 -19.3125 9.238281 -19.6875 10.9375 -19.6875 C 13.414062 -19.6875 15.347656 -18.988281 16.734375 -17.59375 C 18.128906 -16.195312 18.832031 -14.125 18.84375 -11.375 C 18.84375 -10.300781 18.816406 -9.578125 18.765625 -9.203125 Z M 16.015625 -11.375 C 15.972656 -13.4375 15.519531 -14.929688 14.65625 -15.859375 C 13.789062 -16.796875 12.550781 -17.265625 10.9375 -17.265625 C 9.25 -17.265625 7.921875 -16.789062 6.953125 -15.84375 C 5.992188 -14.90625 5.410156 -13.414062 5.203125 -11.375 Z M 16.015625 -11.375 "/></g></g><g style="fill:#ff3131;fill-opacity:1;"><g transform="translate(625.29028, 168.25136)"><path style="stroke:none" d="M 8.8125 0.375 C 7.59375 0.375 6.46875 0.210938 5.4375 -0.109375 C 4.40625 -0.429688 3.53125 -0.875 2.8125 -1.4375 C 2.101562 -2 1.601562 -2.628906 1.3125 -3.328125 L 3 -5.078125 L 3.359375 -5.078125 C 3.992188 -4.117188 4.753906 -3.394531 5.640625 -2.90625 C 6.523438 -2.425781 7.582031 -2.1875 8.8125 -2.1875 C 10.226562 -2.1875 11.304688 -2.460938 12.046875 -3.015625 C 12.796875 -3.578125 13.171875 -4.351562 13.171875 -5.34375 C 13.171875 -6.101562 12.941406 -6.726562 12.484375 -7.21875 C 12.035156 -7.71875 11.3125 -8.085938 10.3125 -8.328125 L 7.0625 -9.140625 C 5.320312 -9.554688 4.050781 -10.21875 3.25 -11.125 C 2.445312 -12.039062 2.046875 -13.171875 2.046875 -14.515625 C 2.046875 -15.566406 2.3125 -16.476562 2.84375 -17.25 C 3.382812 -18.03125 4.160156 -18.628906 5.171875 -19.046875 C 6.179688 -19.472656 7.378906 -19.6875 8.765625 -19.6875 C 10.546875 -19.6875 11.945312 -19.4375 12.96875 -18.9375 C 13.988281 -18.4375 14.785156 -17.742188 15.359375 -16.859375 L 13.75 -15.28125 L 13.390625 -15.28125 C 12.773438 -16 12.101562 -16.515625 11.375 -16.828125 C 10.644531 -17.140625 9.773438 -17.296875 8.765625 -17.296875 C 7.492188 -17.296875 6.519531 -17.066406 5.84375 -16.609375 C 5.164062 -16.160156 4.828125 -15.503906 4.828125 -14.640625 C 4.828125 -13.859375 5.066406 -13.226562 5.546875 -12.75 C 6.023438 -12.269531 6.859375 -11.882812 8.046875 -11.59375 L 11.265625 -10.828125 C 12.941406 -10.421875 14.148438 -9.753906 14.890625 -8.828125 C 15.640625 -7.910156 16.015625 -6.757812 16.015625 -5.375 C 16.015625 -4.238281 15.742188 -3.238281 15.203125 -2.375 C 14.671875 -1.507812 13.863281 -0.832031 12.78125 -0.34375 C 11.695312 0.132812 10.375 0.375 8.8125 0.375 Z M 8.8125 0.375 "/></g></g></g></svg>