<?xml version="1.0" encoding="utf-8"?>
<svg version="1.2" viewBox="0 0 1200 300" xmlns="http://www.w3.org/2000/svg"><g clip-path="url(#a)"><path d="M716.984 154.227a2.866 2.866 0 0 1 0-5.73 2.866 2.866 0 0 1 0 5.73Zm74.703-27.801h.004c-.004-.235-.011-.465-.02-.7v-.007a75.349 75.349 0 0 0-1.081-10.656h-11.793a62.616 62.616 0 0 0-8.93-21.551l8.336-8.336a74.965 74.965 0 0 0-18.297-18.297l-8.336 8.336a62.775 62.775 0 0 0-21.55-8.934V54.492a77.18 77.18 0 0 0-6.434-.84v22.07c25.285 3.114 45.023 24.141 46.125 49.997h-15.32l-19.953 23.148H722.09a5.686 5.686 0 0 0-5.106-3.195 5.688 5.688 0 0 0 0 11.375 5.678 5.678 0 0 0 5.2-3.39h14.449l19.953-23.15h35.078a76.34 76.34 0 0 0 .047-2.51c0-.524-.012-1.048-.024-1.571" style=" stroke:none;fill-rule:nonzero;fill:#51ade5;fill-opacity:1;"/></g><g clip-path="url(#b)"><path d="M714.805 75.379V90.69l23.148 19.954v12.347a5.681 5.681 0 0 0-3.195 5.106 5.688 5.688 0 0 0 11.375 0 5.682 5.682 0 0 0-3.39-5.2V108.45l-23.15-19.953V53.418a58.34 58.34 0 0 0-4.168-.02l-.003-.007c-3.836.086-7.602.46-11.274 1.101v11.79a62.775 62.775 0 0 0-21.55 8.933l-8.336-8.336a75.033 75.033 0 0 0-18.297 18.297l8.336 8.336a62.775 62.775 0 0 0-8.934 21.55h-11.789a75.57 75.57 0 0 0-.836 6.434h22.067c3.109-25.285 24.14-45.016 49.996-46.117" style=" stroke:none;fill-rule:nonzero;fill:#2c3892;fill-opacity:1;"/></g><g clip-path="url(#c)"><path d="M719.363 180.621v-15.316l-23.148-19.953v-12.348a5.681 5.681 0 0 0 3.195-5.106 5.688 5.688 0 0 0-11.375 0 5.678 5.678 0 0 0 3.39 5.2v14.449l23.15 19.953v35.078c.831.027 1.667.043 2.51.043.544 0 1.087-.008 1.63-.02v.004a74.793 74.793 0 0 0 11.305-1.101V189.71a62.616 62.616 0 0 0 21.55-8.93l8.336 8.336a74.965 74.965 0 0 0 18.297-18.297l-8.336-8.336a62.616 62.616 0 0 0 8.93-21.55h11.793c.37-2.114.648-4.262.84-6.434h-22.07c-3.11 25.285-24.141 45.023-49.997 46.121" style=" stroke:none;fill-rule:nonzero;fill:#2c3892;fill-opacity:1;"/></g><g clip-path="url(#d)"><path d="M717.184 101.77a2.866 2.866 0 0 1 0 5.73 2.866 2.866 0 0 1 0-5.73Zm-52.727 28.507h15.32l19.953-23.148h12.348a5.686 5.686 0 0 0 5.106 3.195 5.688 5.688 0 0 0 0-11.375 5.682 5.682 0 0 0-5.2 3.39h-14.449l-19.953 23.15h-35.078a76.332 76.332 0 0 0-.043 2.507c0 .547.008 1.09.02 1.633h-.004a75.25 75.25 0 0 0 1.101 11.305h11.79a62.775 62.775 0 0 0 8.933 21.55l-8.336 8.336a75.101 75.101 0 0 0 18.297 18.297l8.336-8.336a62.616 62.616 0 0 0 21.55 8.93v11.793a77.18 77.18 0 0 0 6.434.84v-22.07c-25.285-3.11-45.023-24.141-46.125-49.997" style=" stroke:none;fill-rule:nonzero;fill:#51ade5;fill-opacity:1;"/></g><g style="fill:#004aad;fill-opacity:1;"><path d="M32.813 0H10.233v-99.297h34.078l22.594 63.672h.547l21.61-63.672h34.64V0h-23.422l.563-70.266h-.422L74.609 0H57.781l-25.11-70.266h-.421Zm0 0" style="stroke:none" transform="translate(111.673 181.206)"/></g><g style="fill:#004aad;fill-opacity:1;"><path d="M17.672 33.656c-2.055 0-4.227-.14-6.516-.422-2.293-.28-4.328-.652-6.11-1.109l2.532-19.36c2.707.844 5.18 1.266 7.422 1.266 2.344 0 4.238-.355 5.688-1.062a8.735 8.735 0 0 0 3.5-3.016c.894-1.305 1.757-3.078 2.593-5.328l2.25-5.75L-.14-70.265h25.532L40.953-24.97h.422l13.89-45.297h24.391L48.391 10.516c-1.97 5.144-4.243 9.398-6.813 12.765a25.183 25.183 0 0 1-9.594 7.703c-3.836 1.782-8.605 2.672-14.312 2.672Zm0 0" style="stroke:none" transform="translate(245.595 181.206)"/></g><g style="fill:#004aad;fill-opacity:1;"><path d="M59.047 2.672c-10.106 0-19.227-2.219-27.36-6.656C23.563-8.43 17.18-14.63 12.547-22.578c-4.625-7.945-6.938-17.016-6.938-27.203 0-10.383 2.36-19.524 7.079-27.422 4.726-7.906 11.18-14.008 19.359-18.313 8.176-4.3 17.316-6.453 27.422-6.453 7.195 0 14.18 1.29 20.953 3.86 6.781 2.574 12.18 6.152 16.203 10.734L80.359-71.109c-2.148-2.989-5.023-5.254-8.625-6.797-3.593-1.54-7.402-2.313-11.421-2.313-5.524 0-10.461 1.309-14.813 3.922-4.344 2.617-7.73 6.242-10.156 10.875-2.43 4.625-3.64 9.84-3.64 15.64 0 5.981 1.187 11.262 3.562 15.844 2.382 4.586 5.726 8.165 10.03 10.735 4.302 2.562 9.165 3.844 14.595 3.844 4.582 0 8.695-.91 12.343-2.735 3.645-1.82 6.54-4.273 8.688-7.36L97.609-13.75C93.117-8.508 87.602-4.46 81.063-1.61 74.52 1.243 67.18 2.673 59.047 2.673Zm0 0" style="stroke:none" transform="translate(360.166 181.206)"/></g><g style="fill:#004aad;fill-opacity:1;"><path d="M30.016 1.688c-4.118 0-8.09-.727-11.922-2.172-3.836-1.457-7.04-3.82-9.61-7.094-2.574-3.27-3.859-7.477-3.859-12.625 0-15.707 14.82-23.563 44.469-23.563h.422v-1.109c0-3.27-1.172-5.77-3.516-7.5-2.336-1.738-5.371-2.61-9.11-2.61-3.18 0-6.288.684-9.328 2.047-3.042 1.356-5.683 3.06-7.921 5.11L8-60.312c4.02-3.833 8.766-6.754 14.234-8.766a48.636 48.636 0 0 1 16.891-3.016c7.758 0 14 1.313 18.719 3.938 4.726 2.617 8.144 6.61 10.25 11.984 2.101 5.375 3.156 12.367 3.156 20.969V0H50.203v-7.438h-.422c-1.68 2.813-4.34 5.04-7.984 6.672-3.649 1.633-7.574 2.454-11.781 2.454Zm5.75-15.438c4.582 0 8.132-1.281 10.656-3.844 2.52-2.57 3.781-6.054 3.781-10.453v-2.39h-2.937c-6.262 0-11.403.656-15.422 1.968-4.024 1.313-6.032 3.84-6.032 7.578 0 2.43.977 4.227 2.938 5.391 1.969 1.168 4.305 1.75 7.016 1.75Zm0 0" style="stroke:none" transform="translate(455.244 181.206)"/></g><g style="fill:#004aad;fill-opacity:1;"><path d="M8.969-52.453v-17.813H31.14v10.094h.28c1.77-3.644 4.337-6.566 7.704-8.766 3.363-2.195 7.102-3.296 11.219-3.296 2.25 0 3.89.187 4.922.562l-.985 20.203c-1.781-.468-3.746-.703-5.89-.703-3.836 0-6.97.867-9.407 2.594-2.43 1.73-4.203 3.812-5.328 6.25-1.117 2.43-1.672 4.762-1.672 7V0H8.97Zm0 0" style="stroke:none" transform="translate(534.616 181.206)"/></g><g style="fill:#004aad;fill-opacity:1;"><path d="M33.656 1.969c-5.886 0-10.746-1.356-14.578-4.063-3.836-2.719-6.594-6.226-8.281-10.531-1.68-4.3-2.516-8.973-2.516-14.016v-43.625h23.14v38.282c0 4.492.77 8.093 2.313 10.812 1.54 2.711 4.227 4.063 8.063 4.063 2.613 0 4.832-.676 6.656-2.032 1.82-1.351 3.223-3.175 4.203-5.468.989-2.29 1.485-4.797 1.485-7.516v-38.14h23V0H54.984v-9.672h-.28c-1.126 2.149-2.72 4.086-4.782 5.813-2.055 1.73-4.484 3.132-7.297 4.203-2.805 1.082-5.793 1.625-8.969 1.625Zm0 0" style="stroke:none" transform="translate(800.5 181.206)"/></g><g style="fill:#004aad;fill-opacity:1;"><path d="M44.172 2.25C37.16 2.25 30.688.707 24.75-2.375c-5.938-3.094-10.637-7.488-14.094-13.188-3.46-5.707-5.187-12.253-5.187-19.64 0-7.383 1.726-13.879 5.187-19.484 3.457-5.614 8.13-9.915 14.016-12.907 5.894-3 12.394-4.5 19.5-4.5 7.113 0 13.64 1.5 19.578 4.5 5.938 2.992 10.633 7.293 14.094 12.906 3.457 5.606 5.187 12.102 5.187 19.485 0 7.387-1.758 13.933-5.265 19.64-3.5 5.7-8.2 10.094-14.094 13.188C57.785.707 51.285 2.25 44.172 2.25Zm.14-19.36c3.47 0 6.438-.863 8.907-2.593 2.476-1.727 4.375-3.973 5.687-6.735a20.145 20.145 0 0 0 1.969-8.765c0-3.082-.656-5.977-1.969-8.688-1.312-2.718-3.23-4.914-5.75-6.593-2.523-1.688-5.515-2.532-8.984-2.532-3.461 0-6.43.844-8.906 2.532a16.042 16.042 0 0 0-5.61 6.593c-1.261 2.711-1.89 5.606-1.89 8.688 0 3.086.656 6.008 1.968 8.766 1.313 2.761 3.203 5.007 5.672 6.734 2.477 1.73 5.446 2.594 8.907 2.594Zm0 0" style="stroke:none" transform="translate(886.603 181.206)"/></g><g style="fill:#004aad;fill-opacity:1;"><path d="M36.328 1.688c-8.887 0-15.246-2.149-19.078-6.454-3.836-4.3-5.75-10.425-5.75-18.375v-29.875H.281v-17.25H11.36V-88.5h22.578v18.234h16.407v17.25H33.937v27.063c0 3.375.657 5.86 1.97 7.453 1.312 1.586 3.554 2.375 6.734 2.375 1.113 0 2.3-.094 3.562-.281 1.27-.188 2.328-.469 3.172-.844l.281 16.828c-1.593.563-3.633 1.05-6.11 1.469-2.48.426-4.886.64-7.218.64Zm0 0" style="stroke:none" transform="translate(975.23 181.206)"/></g><g style="fill:#004aad;fill-opacity:1;"><path d="M43.89 2.25C36.786 2.25 30.313.8 24.47-2.094 18.625-5 13.992-9.254 10.579-14.859c-3.407-5.614-5.11-12.207-5.11-19.782 0-7.476 1.656-14.047 4.968-19.703C13.758-60 18.27-64.367 23.97-67.454c5.707-3.093 12.117-4.64 19.234-4.64 6.914 0 13.016 1.524 18.297 4.563 5.281 3.043 9.395 7.437 12.344 13.187 2.945 5.75 4.422 12.508 4.422 20.266 0 2.523-.047 4.344-.141 5.469h-50.64c.187 2.523 1.097 4.789 2.734 6.797 1.633 2.011 3.691 3.578 6.172 4.703a18.605 18.605 0 0 0 7.78 1.687c3.47 0 6.485-.656 9.048-1.969 2.57-1.312 4.703-3.086 6.39-5.328l15.985 10.094c-3.367 4.773-7.735 8.445-13.11 11.016C57.11.96 50.91 2.25 43.891 2.25Zm13.188-45.172c0-2.52-.516-4.785-1.547-6.797-1.023-2.008-2.586-3.597-4.687-4.765-2.106-1.164-4.606-1.75-7.5-1.75-2.907 0-5.528.609-7.86 1.828-2.336 1.21-4.203 2.82-5.609 4.828a13.197 13.197 0 0 0-2.39 6.656Zm0 0" style="stroke:none" transform="translate(1027.397 181.206)"/></g><g style="fill:#ff3131;fill-opacity:1;"><path d="M30.125-40.781v3.968H10.969v14.829h17.234v4H10.97V0H6.172v-40.781Zm0 0" style="stroke:none" transform="translate(582.867 258.812)"/></g><g style="fill:#ff3131;fill-opacity:1;"><path d="M12.688.578c-3.032 0-5.399-.785-7.094-2.36-1.7-1.581-2.547-3.843-2.547-6.78 0-1.82.375-3.36 1.125-4.61.75-1.258 1.914-2.285 3.5-3.078 1.582-.79 3.644-1.398 6.187-1.828 2.227-.363 3.926-.781 5.094-1.25 1.164-.469 1.945-.988 2.344-1.563.394-.57.594-1.297.594-2.172 0-1.394-.48-2.46-1.438-3.203-.96-.75-2.496-1.125-4.61-1.125-1.991 0-3.698.387-5.124 1.157C9.3-25.461 8-24.312 6.813-22.781H6.25l-2.234-3.157c1.3-1.656 2.957-2.972 4.968-3.953 2.008-.976 4.297-1.468 6.86-1.468 3.625 0 6.297.797 8.015 2.39 1.72 1.594 2.578 3.793 2.578 6.594v16.328c0 1.711.727 2.563 2.188 2.563.477 0 .941-.082 1.39-.25l.391.109.532 3.156c-.336.219-.778.387-1.329.5a7.652 7.652 0 0 1-1.687.188c-1.7 0-2.98-.367-3.844-1.11-.867-.75-1.418-1.847-1.656-3.296l-.578-.047c-.875 1.617-2.059 2.824-3.547 3.625-1.492.789-3.36 1.187-5.61 1.187Zm1.015-3.625c1.707 0 3.188-.39 4.438-1.172 1.257-.789 2.222-1.898 2.89-3.328.664-1.437 1-3.098 1-4.984v-3.89l-.531-.126c-.688.492-1.527.899-2.516 1.219-.98.324-2.355.617-4.125.875-1.78.242-3.199.617-4.25 1.125-1.054.5-1.804 1.137-2.25 1.906-.437.774-.656 1.727-.656 2.86 0 1.804.524 3.171 1.578 4.109 1.063.937 2.535 1.406 4.422 1.406Zm0 0" style="stroke:none" transform="translate(613.307 258.812)"/></g><g style="fill:#ff3131;fill-opacity:1;"><path d="M14.031.578c-1.937 0-3.73-.258-5.375-.765-1.648-.508-3.039-1.208-4.172-2.094-1.125-.895-1.921-1.899-2.39-3.016l2.672-2.797h.593c1 1.531 2.204 2.684 3.61 3.453 1.414.774 3.101 1.157 5.062 1.157 2.27 0 3.992-.442 5.172-1.329C20.38-5.694 20.97-6.925 20.97-8.5c0-1.219-.36-2.219-1.078-3-.711-.79-1.868-1.383-3.47-1.781l-5.187-1.281c-2.773-.665-4.793-1.723-6.062-3.172-1.274-1.457-1.906-3.254-1.906-5.391 0-1.676.425-3.129 1.28-4.36.852-1.238 2.083-2.19 3.688-2.859 1.614-.676 3.524-1.015 5.735-1.015 2.832 0 5.062.398 6.687 1.187 1.625.793 2.895 1.899 3.813 3.313l-2.578 2.515h-.547c-.992-1.133-2.07-1.953-3.235-2.453-1.156-.508-2.539-.765-4.14-.765-2.024 0-3.574.367-4.656 1.093-1.075.73-1.61 1.782-1.61 3.157 0 1.242.379 2.246 1.14 3.015.759.762 2.087 1.371 3.985 1.828l5.11 1.235c2.675.625 4.609 1.68 5.796 3.156 1.188 1.469 1.782 3.308 1.782 5.515 0 1.805-.43 3.391-1.282 4.766-.855 1.375-2.148 2.45-3.875 3.219-1.73.77-3.84 1.156-6.328 1.156Zm0 0" style="stroke:none" transform="translate(645.114 258.812)"/></g><g style="fill:#ff3131;fill-opacity:1;"><path d="m20.813-4.875 1.453 3.25c-.73.73-1.688 1.277-2.875 1.64-1.18.376-2.453.563-3.828.563-5.876 0-8.813-2.973-8.813-8.922v-18.718H1.39v-3.735h5.36v-6.5l4.547-.75v7.25h9.906v3.735h-9.906v18.28c0 3.532 1.535 5.298 4.61 5.298 1.663 0 3.1-.461 4.312-1.391Zm0 0" style="stroke:none" transform="translate(673.548 258.812)"/></g><g style="fill:#ff3131;fill-opacity:1;"><path d="M6.172 0v-40.781h14.797c2.738 0 5.035.453 6.89 1.36 1.864.898 3.258 2.167 4.188 3.812.926 1.648 1.39 3.593 1.39 5.843 0 2.532-.632 4.621-1.89 6.266-1.262 1.648-3.23 2.883-5.906 3.703v.578a7.344 7.344 0 0 1 3.218 2.453c.844 1.118 1.618 2.782 2.328 5L34.953 0h-4.937l-4.078-12.469c-.481-1.469-1.04-2.617-1.672-3.453a5.32 5.32 0 0 0-2.407-1.812c-.96-.375-2.183-.563-3.672-.563H10.97V0Zm14.687-22.375c2.551 0 4.446-.586 5.688-1.766 1.25-1.175 1.875-2.972 1.875-5.39 0-2.426-.625-4.227-1.875-5.407-1.242-1.175-3.137-1.765-5.688-1.765h-9.89v14.328Zm0 0" style="stroke:none" transform="translate(710.958 258.812)"/></g><g style="fill:#ff3131;fill-opacity:1;"><path d="M29.313-14.344H8.172c.133 3.742 1.031 6.485 2.687 8.235 1.664 1.75 3.954 2.625 6.86 2.625 2.187 0 3.945-.391 5.281-1.172 1.344-.782 2.395-2.008 3.156-3.688h.594l2.953 1.766c-.887 2.23-2.312 3.98-4.281 5.25C23.46-.055 20.895.578 17.719.578c-2.98 0-5.543-.582-7.688-1.75C7.895-2.336 6.25-4.109 5.094-6.484c-1.149-2.383-1.719-5.348-1.719-8.891 0-3.488.61-6.43 1.828-8.828 1.219-2.406 2.879-4.195 4.984-5.375 2.114-1.188 4.532-1.781 7.25-1.781 3.938 0 7.008 1.117 9.22 3.343 2.218 2.22 3.335 5.516 3.359 9.891 0 1.71-.04 2.86-.11 3.453Zm-3.797-3.781c-.075-3.281-.797-5.66-2.172-7.14C21.969-26.755 20-27.5 17.437-27.5c-2.699 0-4.82.75-6.359 2.25-1.531 1.492-2.465 3.867-2.797 7.125Zm0 0" style="stroke:none" transform="translate(747.893 258.812)"/></g><g style="fill:#ff3131;fill-opacity:1;"><path d="M5.36 12.469v-43.235h4.546v4.61l.578.11c2.29-3.54 5.649-5.313 10.079-5.313 2.562 0 4.8.59 6.718 1.765 1.914 1.168 3.399 2.95 4.453 5.344 1.063 2.387 1.594 5.344 1.594 8.875 0 3.523-.558 6.477-1.672 8.86C30.54-4.142 29-2.364 27.031-1.189 25.063-.008 22.79.579 20.22.579c-2.086 0-3.934-.36-5.547-1.078-1.617-.727-3.012-1.922-4.188-3.578l-.578.125v16.422ZM19.218-3.484c6.226 0 9.343-3.961 9.343-11.891 0-7.938-3.117-11.906-9.343-11.906-1.824 0-3.434.422-4.828 1.265-1.399.836-2.496 2.141-3.297 3.922-.793 1.774-1.188 4.012-1.188 6.719 0 2.7.395 4.938 1.188 6.719.8 1.773 1.898 3.078 3.297 3.922 1.394.836 3.004 1.25 4.828 1.25Zm0 0" style="stroke:none" transform="translate(780.676 258.812)"/></g><g style="fill:#ff3131;fill-opacity:1;"><path d="M12.688.578c-3.032 0-5.399-.785-7.094-2.36-1.7-1.581-2.547-3.843-2.547-6.78 0-1.82.375-3.36 1.125-4.61.75-1.258 1.914-2.285 3.5-3.078 1.582-.79 3.644-1.398 6.187-1.828 2.227-.363 3.926-.781 5.094-1.25 1.164-.469 1.945-.988 2.344-1.563.394-.57.594-1.297.594-2.172 0-1.394-.48-2.46-1.438-3.203-.96-.75-2.496-1.125-4.61-1.125-1.991 0-3.698.387-5.124 1.157C9.3-25.461 8-24.312 6.813-22.781H6.25l-2.234-3.157c1.3-1.656 2.957-2.972 4.968-3.953 2.008-.976 4.297-1.468 6.86-1.468 3.625 0 6.297.797 8.015 2.39 1.72 1.594 2.578 3.793 2.578 6.594v16.328c0 1.711.727 2.563 2.188 2.563.477 0 .941-.082 1.39-.25l.391.109.532 3.156c-.336.219-.778.387-1.329.5a7.652 7.652 0 0 1-1.687.188c-1.7 0-2.98-.367-3.844-1.11-.867-.75-1.418-1.847-1.656-3.296l-.578-.047c-.875 1.617-2.059 2.824-3.547 3.625-1.492.789-3.36 1.187-5.61 1.187Zm1.015-3.625c1.707 0 3.188-.39 4.438-1.172 1.257-.789 2.222-1.898 2.89-3.328.664-1.437 1-3.098 1-4.984v-3.89l-.531-.126c-.688.492-1.527.899-2.516 1.219-.98.324-2.355.617-4.125.875-1.78.242-3.199.617-4.25 1.125-1.054.5-1.804 1.137-2.25 1.906-.437.774-.656 1.727-.656 2.86 0 1.804.524 3.171 1.578 4.109 1.063.937 2.535 1.406 4.422 1.406Zm0 0" style="stroke:none" transform="translate(817.361 258.812)"/></g><g style="fill:#ff3131;fill-opacity:1;"><path d="M7.64-36.703c-.968 0-1.757-.3-2.359-.906-.605-.602-.906-1.375-.906-2.313 0-.926.3-1.691.906-2.297.602-.601 1.39-.906 2.36-.906.968 0 1.754.305 2.359.906.602.606.906 1.371.906 2.297 0 .938-.304 1.711-.906 2.313-.605.605-1.39.906-2.36.906ZM5.36 0v-30.766h4.546V0Zm0 0" style="stroke:none" transform="translate(849.168 258.812)"/></g><g style="fill:#ff3131;fill-opacity:1;"><path d="M5.36 0v-30.766h4.312v4.828l.594.141c1.425-3.5 4.125-5.25 8.093-5.25 2.094 0 3.66.383 4.703 1.14l-1.171 3.86-.547.11c-1.157-.583-2.422-.875-3.797-.875-2.461 0-4.352.921-5.672 2.765-1.313 1.844-1.969 4.828-1.969 8.953V0Zm0 0" style="stroke:none" transform="translate(864.417 258.812)"/></g><g style="fill:#ff3131;fill-opacity:1;"><path d="M32.797 9.516c-3.387 0-6.211-.782-8.469-2.344-2.25-1.563-3.836-3.813-4.75-6.75C16.516.023 13.82-.988 11.5-2.625 9.187-4.258 7.367-6.566 6.047-9.547c-1.313-2.988-1.969-6.601-1.969-10.844 0-4.664.785-8.566 2.36-11.703 1.582-3.133 3.75-5.46 6.5-6.984 2.757-1.52 5.906-2.281 9.437-2.281 3.531 0 6.672.761 9.422 2.28 2.75 1.524 4.914 3.852 6.5 6.985 1.582 3.137 2.375 7.04 2.375 11.703 0 6.375-1.445 11.243-4.328 14.594C33.457-2.453 29.516-.484 24.516.11l-.172.594c.676 1.54 1.758 2.703 3.25 3.485 1.5.78 3.254 1.171 5.265 1.171 1.02 0 1.977-.132 2.875-.39l.547.11.703 3.702c-1.117.489-2.511.735-4.187.735ZM22.375-3.844c4.238 0 7.488-1.32 9.75-3.969 2.27-2.656 3.406-6.847 3.406-12.578 0-5.726-1.136-9.914-3.406-12.562-2.262-2.656-5.512-3.984-9.75-3.984-8.781 0-13.172 5.515-13.172 16.546 0 11.032 4.39 16.547 13.172 16.547Zm0 0" style="stroke:none" transform="translate(902.162 258.812)"/></g><g style="fill:#ff3131;fill-opacity:1;"><path d="M15.203.578c-3.48 0-6.074-.914-7.781-2.75-1.7-1.844-2.547-4.539-2.547-8.094v-20.5h4.547v20.391c0 4.668 2.195 7 6.594 7 2.78 0 4.976-.91 6.593-2.734 1.625-1.82 2.438-4.782 2.438-8.875v-15.782h4.547V0h-4.297v-4.828l-.578-.14c-1.063 1.886-2.336 3.28-3.813 4.187-1.48.906-3.383 1.36-5.703 1.36Zm0 0" style="stroke:none" transform="translate(946.875 258.812)"/></g><g style="fill:#ff3131;fill-opacity:1;"><path d="M17.656.578c-2.898 0-5.422-.61-7.578-1.828C7.93-2.477 6.273-4.285 5.11-6.672c-1.156-2.394-1.734-5.297-1.734-8.703 0-3.395.578-6.29 1.734-8.688 1.164-2.406 2.82-4.222 4.97-5.453 2.155-1.226 4.679-1.843 7.577-1.843 2.895 0 5.414.617 7.563 1.843 2.156 1.23 3.812 3.047 4.968 5.453 1.165 2.399 1.75 5.293 1.75 8.688 0 3.406-.585 6.309-1.75 8.703-1.156 2.387-2.812 4.195-4.968 5.422C23.07-.031 20.55.578 17.656.578Zm0-4.062c3.07 0 5.422-.961 7.047-2.891 1.625-1.938 2.438-4.938 2.438-9 0-4.07-.813-7.07-2.438-9-1.625-1.938-3.976-2.906-7.047-2.906-3.074 0-5.43.976-7.062 2.922-1.637 1.937-2.453 4.933-2.453 8.984 0 4.063.816 7.063 2.453 9 1.633 1.93 3.988 2.89 7.062 2.89Zm0 0" style="stroke:none" transform="translate(981.804 258.812)"/></g><g style="fill:#ff3131;fill-opacity:1;"><path d="m20.813-4.875 1.453 3.25c-.73.73-1.688 1.277-2.875 1.64-1.18.376-2.453.563-3.828.563-5.876 0-8.813-2.973-8.813-8.922v-18.718H1.39v-3.735h5.36v-6.5l4.547-.75v7.25h9.906v3.735h-9.906v18.28c0 3.532 1.535 5.298 4.61 5.298 1.663 0 3.1-.461 4.312-1.391Zm0 0" style="stroke:none" transform="translate(1017.096 258.812)"/></g><g style="fill:#ff3131;fill-opacity:1;"><path d="M29.313-14.344H8.172c.133 3.742 1.031 6.485 2.687 8.235 1.664 1.75 3.954 2.625 6.86 2.625 2.187 0 3.945-.391 5.281-1.172 1.344-.782 2.395-2.008 3.156-3.688h.594l2.953 1.766c-.887 2.23-2.312 3.98-4.281 5.25C23.46-.055 20.895.578 17.719.578c-2.98 0-5.543-.582-7.688-1.75C7.895-2.336 6.25-4.109 5.094-6.484c-1.149-2.383-1.719-5.348-1.719-8.891 0-3.488.61-6.43 1.828-8.828 1.219-2.406 2.879-4.195 4.984-5.375 2.114-1.188 4.532-1.781 7.25-1.781 3.938 0 7.008 1.117 9.22 3.343 2.218 2.22 3.335 5.516 3.359 9.891 0 1.71-.04 2.86-.11 3.453Zm-3.797-3.781c-.075-3.281-.797-5.66-2.172-7.14C21.969-26.755 20-27.5 17.437-27.5c-2.699 0-4.82.75-6.359 2.25-1.531 1.492-2.465 3.867-2.797 7.125Zm0 0" style="stroke:none" transform="translate(1040.15 258.812)"/></g><g style="fill:#ff3131;fill-opacity:1;"><path d="M14.031.578c-1.937 0-3.73-.258-5.375-.765-1.648-.508-3.039-1.208-4.172-2.094-1.125-.895-1.921-1.899-2.39-3.016l2.672-2.797h.593c1 1.531 2.204 2.684 3.61 3.453 1.414.774 3.101 1.157 5.062 1.157 2.27 0 3.992-.442 5.172-1.329C20.38-5.694 20.97-6.925 20.97-8.5c0-1.219-.36-2.219-1.078-3-.711-.79-1.868-1.383-3.47-1.781l-5.187-1.281c-2.773-.665-4.793-1.723-6.062-3.172-1.274-1.457-1.906-3.254-1.906-5.391 0-1.676.425-3.129 1.28-4.36.852-1.238 2.083-2.19 3.688-2.859 1.614-.676 3.524-1.015 5.735-1.015 2.832 0 5.062.398 6.687 1.187 1.625.793 2.895 1.899 3.813 3.313l-2.578 2.515h-.547c-.992-1.133-2.07-1.953-3.235-2.453-1.156-.508-2.539-.765-4.14-.765-2.024 0-3.574.367-4.656 1.093-1.075.73-1.61 1.782-1.61 3.157 0 1.242.379 2.246 1.14 3.015.759.762 2.087 1.371 3.985 1.828l5.11 1.235c2.675.625 4.609 1.68 5.796 3.156 1.188 1.469 1.782 3.308 1.782 5.515 0 1.805-.43 3.391-1.282 4.766-.855 1.375-2.148 2.45-3.875 3.219-1.73.77-3.84 1.156-6.328 1.156Zm0 0" style="stroke:none" transform="translate(1072.932 258.812)"/></g></svg>