<svg xmlns="http://www.w3.org/2000/svg" xmlns:xlink="http://www.w3.org/1999/xlink" width="1600" zoomAndPan="magnify" viewBox="0 0 1200 299.999988" height="400" preserveAspectRatio="xMidYMid meet" version="1.2"><defs><clipPath id="b85f19e929"><path d="M 711 53.371094 L 791.710938 53.371094 L 791.710938 158 L 711 158 Z M 711 53.371094 "/></clipPath><clipPath id="5fe4e7f643"><path d="M 642.460938 53.371094 L 747 53.371094 L 747 134 L 642.460938 134 Z M 642.460938 53.371094 "/></clipPath><clipPath id="ca5e7c3cd5"><path d="M 688 122 L 791.710938 122 L 791.710938 202.621094 L 688 202.621094 Z M 688 122 "/></clipPath><clipPath id="54e870df02"><path d="M 642.460938 98 L 723 98 L 723 202.621094 L 642.460938 202.621094 Z M 642.460938 98 "/></clipPath></defs><g id="f90f5c4354"><g clip-rule="nonzero" clip-path="url(#b85f19e929)"><path style=" stroke:none;fill-rule:nonzero;fill:#38b6ff;fill-opacity:1;" d="M 716.984375 154.226562 C 715.402344 154.226562 714.121094 152.941406 714.121094 151.359375 C 714.121094 149.777344 715.402344 148.496094 716.984375 148.496094 C 718.566406 148.496094 719.847656 149.777344 719.847656 151.359375 C 719.847656 152.941406 718.566406 154.226562 716.984375 154.226562 Z M 791.6875 126.425781 L 791.691406 126.425781 C 791.6875 126.191406 791.679688 125.960938 791.671875 125.726562 C 791.671875 125.722656 791.671875 125.722656 791.671875 125.71875 C 791.5625 122.097656 791.195312 118.539062 790.589844 115.0625 L 778.796875 115.0625 C 777.171875 107.25 774.09375 99.96875 769.867188 93.511719 L 778.203125 85.175781 C 773.214844 78.066406 767.015625 71.867188 759.90625 66.878906 L 751.570312 75.214844 C 745.113281 70.988281 737.832031 67.914062 730.019531 66.28125 L 730.019531 54.492188 C 727.90625 54.125 725.757812 53.84375 723.585938 53.652344 L 723.585938 75.722656 C 748.871094 78.835938 768.609375 99.863281 769.710938 125.71875 L 754.390625 125.71875 L 734.4375 148.867188 L 722.089844 148.867188 C 721.164062 146.976562 719.226562 145.671875 716.984375 145.671875 C 713.84375 145.671875 711.296875 148.21875 711.296875 151.359375 C 711.296875 154.5 713.84375 157.046875 716.984375 157.046875 C 719.308594 157.046875 721.304688 155.652344 722.183594 153.65625 L 736.632812 153.65625 L 756.585938 130.507812 L 791.664062 130.507812 C 791.691406 129.675781 791.710938 128.839844 791.710938 127.996094 C 791.710938 127.472656 791.699219 126.949219 791.6875 126.425781 "/></g><g clip-rule="nonzero" clip-path="url(#5fe4e7f643)"><path style=" stroke:none;fill-rule:nonzero;fill:#f7fff8;fill-opacity:1;" d="M 714.804688 75.378906 L 714.804688 90.691406 L 737.953125 110.644531 L 737.953125 122.992188 C 736.0625 123.917969 734.757812 125.851562 734.757812 128.097656 C 734.757812 131.238281 737.304688 133.785156 740.445312 133.785156 C 743.585938 133.785156 746.132812 131.238281 746.132812 128.097656 C 746.132812 125.773438 744.738281 123.78125 742.742188 122.898438 L 742.742188 108.449219 L 719.59375 88.496094 L 719.59375 53.417969 C 718.761719 53.390625 717.925781 53.371094 717.085938 53.371094 C 716.527344 53.371094 715.976562 53.382812 715.425781 53.398438 L 715.421875 53.390625 C 711.585938 53.476562 707.820312 53.851562 704.148438 54.492188 L 704.148438 66.28125 C 696.335938 67.914062 689.054688 70.988281 682.597656 75.214844 L 674.261719 66.878906 C 667.152344 71.867188 660.957031 78.066406 655.964844 85.175781 L 664.300781 93.511719 C 660.074219 99.96875 657 107.25 655.367188 115.0625 L 643.578125 115.0625 C 643.210938 117.175781 642.929688 119.324219 642.742188 121.496094 L 664.808594 121.496094 C 667.917969 96.210938 688.949219 76.480469 714.804688 75.378906 "/></g><g clip-rule="nonzero" clip-path="url(#ca5e7c3cd5)"><path style=" stroke:none;fill-rule:nonzero;fill:#f7fff8;fill-opacity:1;" d="M 719.363281 180.621094 L 719.363281 165.304688 L 696.214844 145.351562 L 696.214844 133.003906 C 698.105469 132.078125 699.410156 130.144531 699.410156 127.898438 C 699.410156 124.757812 696.863281 122.210938 693.722656 122.210938 C 690.582031 122.210938 688.035156 124.757812 688.035156 127.898438 C 688.035156 130.222656 689.429688 132.21875 691.425781 133.097656 L 691.425781 147.546875 L 714.574219 167.5 L 714.574219 202.578125 C 715.40625 202.605469 716.242188 202.621094 717.085938 202.621094 C 717.628906 202.621094 718.171875 202.613281 718.714844 202.601562 L 718.714844 202.605469 C 722.5625 202.523438 726.335938 202.148438 730.019531 201.503906 L 730.019531 189.710938 C 737.832031 188.085938 745.113281 185.007812 751.570312 180.78125 L 759.90625 189.117188 C 767.015625 184.128906 773.214844 177.929688 778.203125 170.820312 L 769.867188 162.484375 C 774.09375 156.027344 777.171875 148.746094 778.796875 140.933594 L 790.589844 140.933594 C 790.960938 138.820312 791.238281 136.671875 791.429688 134.5 L 769.359375 134.5 C 766.25 159.785156 745.21875 179.523438 719.363281 180.621094 "/></g><g clip-rule="nonzero" clip-path="url(#54e870df02)"><path style=" stroke:none;fill-rule:nonzero;fill:#38b6ff;fill-opacity:1;" d="M 717.183594 101.769531 C 718.765625 101.769531 720.046875 103.054688 720.046875 104.636719 C 720.046875 106.21875 718.765625 107.5 717.183594 107.5 C 715.601562 107.5 714.320312 106.21875 714.320312 104.636719 C 714.320312 103.054688 715.601562 101.769531 717.183594 101.769531 Z M 664.457031 130.277344 L 679.777344 130.277344 L 699.730469 107.128906 L 712.078125 107.128906 C 713.003906 109.019531 714.941406 110.324219 717.183594 110.324219 C 720.324219 110.324219 722.871094 107.777344 722.871094 104.636719 C 722.871094 101.496094 720.324219 98.949219 717.183594 98.949219 C 714.859375 98.949219 712.867188 100.34375 711.984375 102.339844 L 697.535156 102.339844 L 677.582031 125.488281 L 642.503906 125.488281 C 642.476562 126.320312 642.460938 127.15625 642.460938 127.996094 C 642.460938 128.542969 642.46875 129.085938 642.480469 129.628906 L 642.476562 129.628906 C 642.558594 133.476562 642.9375 137.253906 643.578125 140.933594 L 655.367188 140.933594 C 657 148.746094 660.074219 156.027344 664.300781 162.484375 L 655.964844 170.820312 C 660.957031 177.929688 667.152344 184.125 674.261719 189.117188 L 682.597656 180.78125 C 689.054688 185.007812 696.335938 188.085938 704.148438 189.710938 L 704.148438 201.503906 C 706.261719 201.871094 708.410156 202.152344 710.582031 202.34375 L 710.582031 180.273438 C 685.296875 177.164062 665.558594 156.132812 664.457031 130.277344 "/></g><g style="fill:#ffffff;fill-opacity:1;"><g transform="translate(111.672905, 181.206404)"><path style="stroke:none" d="M 32.8125 0 L 10.234375 0 L 10.234375 -99.296875 L 44.3125 -99.296875 L 66.90625 -35.625 L 67.453125 -35.625 L 89.0625 -99.296875 L 123.703125 -99.296875 L 123.703125 0 L 100.28125 0 L 100.84375 -70.265625 L 100.421875 -70.265625 L 74.609375 0 L 57.78125 0 L 32.671875 -70.265625 L 32.25 -70.265625 Z M 32.8125 0 "/></g></g><g style="fill:#ffffff;fill-opacity:1;"><g transform="translate(245.595482, 181.206404)"><path style="stroke:none" d="M 17.671875 33.65625 C 15.617188 33.65625 13.445312 33.515625 11.15625 33.234375 C 8.863281 32.953125 6.828125 32.582031 5.046875 32.125 L 7.578125 12.765625 C 10.285156 13.609375 12.757812 14.03125 15 14.03125 C 17.34375 14.03125 19.238281 13.675781 20.6875 12.96875 C 22.132812 12.269531 23.300781 11.265625 24.1875 9.953125 C 25.082031 8.648438 25.945312 6.875 26.78125 4.625 L 29.03125 -1.125 L -0.140625 -70.265625 L 25.390625 -70.265625 L 40.953125 -24.96875 L 41.375 -24.96875 L 55.265625 -70.265625 L 79.65625 -70.265625 L 48.390625 10.515625 C 46.421875 15.660156 44.148438 19.914062 41.578125 23.28125 C 39.015625 26.644531 35.816406 29.210938 31.984375 30.984375 C 28.148438 32.765625 23.378906 33.65625 17.671875 33.65625 Z M 17.671875 33.65625 "/></g></g><g style="fill:#ffffff;fill-opacity:1;"><g transform="translate(325.107627, 181.206404)"><path style="stroke:none" d=""/></g></g><g style="fill:#ffffff;fill-opacity:1;"><g transform="translate(360.165897, 181.206404)"><path style="stroke:none" d="M 59.046875 2.671875 C 48.941406 2.671875 39.820312 0.453125 31.6875 -3.984375 C 23.5625 -8.429688 17.179688 -14.628906 12.546875 -22.578125 C 7.921875 -30.523438 5.609375 -39.59375 5.609375 -49.78125 C 5.609375 -60.164062 7.96875 -69.304688 12.6875 -77.203125 C 17.414062 -85.109375 23.867188 -91.210938 32.046875 -95.515625 C 40.222656 -99.816406 49.363281 -101.96875 59.46875 -101.96875 C 66.664062 -101.96875 73.648438 -100.679688 80.421875 -98.109375 C 87.203125 -95.535156 92.601562 -91.957031 96.625 -87.375 L 80.359375 -71.109375 C 78.210938 -74.097656 75.335938 -76.363281 71.734375 -77.90625 C 68.140625 -79.445312 64.332031 -80.21875 60.3125 -80.21875 C 54.789062 -80.21875 49.851562 -78.910156 45.5 -76.296875 C 41.15625 -73.679688 37.769531 -70.054688 35.34375 -65.421875 C 32.914062 -60.796875 31.703125 -55.582031 31.703125 -49.78125 C 31.703125 -43.800781 32.890625 -38.519531 35.265625 -33.9375 C 37.648438 -29.351562 40.992188 -25.773438 45.296875 -23.203125 C 49.597656 -20.640625 54.460938 -19.359375 59.890625 -19.359375 C 64.472656 -19.359375 68.585938 -20.269531 72.234375 -22.09375 C 75.878906 -23.914062 78.773438 -26.367188 80.921875 -29.453125 L 97.609375 -13.75 C 93.117188 -8.507812 87.601562 -4.460938 81.0625 -1.609375 C 74.519531 1.242188 67.179688 2.671875 59.046875 2.671875 Z M 59.046875 2.671875 "/></g></g><g style="fill:#ffffff;fill-opacity:1;"><g transform="translate(455.243596, 181.206404)"><path style="stroke:none" d="M 30.015625 1.6875 C 25.898438 1.6875 21.925781 0.960938 18.09375 -0.484375 C 14.257812 -1.941406 11.054688 -4.304688 8.484375 -7.578125 C 5.910156 -10.847656 4.625 -15.054688 4.625 -20.203125 C 4.625 -35.910156 19.445312 -43.765625 49.09375 -43.765625 L 49.515625 -43.765625 L 49.515625 -44.875 C 49.515625 -48.144531 48.34375 -50.644531 46 -52.375 C 43.664062 -54.113281 40.628906 -54.984375 36.890625 -54.984375 C 33.710938 -54.984375 30.601562 -54.300781 27.5625 -52.9375 C 24.519531 -51.582031 21.878906 -49.878906 19.640625 -47.828125 L 8 -60.3125 C 12.019531 -64.144531 16.765625 -67.066406 22.234375 -69.078125 C 27.703125 -71.085938 33.332031 -72.09375 39.125 -72.09375 C 46.882812 -72.09375 53.125 -70.78125 57.84375 -68.15625 C 62.570312 -65.539062 65.988281 -61.546875 68.09375 -56.171875 C 70.195312 -50.796875 71.25 -43.804688 71.25 -35.203125 L 71.25 0 L 50.203125 0 L 50.203125 -7.4375 L 49.78125 -7.4375 C 48.101562 -4.625 45.441406 -2.398438 41.796875 -0.765625 C 38.148438 0.867188 34.222656 1.6875 30.015625 1.6875 Z M 35.765625 -13.75 C 40.347656 -13.75 43.898438 -15.03125 46.421875 -17.59375 C 48.941406 -20.164062 50.203125 -23.648438 50.203125 -28.046875 L 50.203125 -30.4375 L 47.265625 -30.4375 C 41.003906 -30.4375 35.863281 -29.78125 31.84375 -28.46875 C 27.820312 -27.15625 25.8125 -24.628906 25.8125 -20.890625 C 25.8125 -18.460938 26.789062 -16.664062 28.75 -15.5 C 30.71875 -14.332031 33.054688 -13.75 35.765625 -13.75 Z M 35.765625 -13.75 "/></g></g><g style="fill:#ffffff;fill-opacity:1;"><g transform="translate(534.615529, 181.206404)"><path style="stroke:none" d="M 8.96875 -52.453125 L 8.96875 -70.265625 L 31.140625 -70.265625 L 31.140625 -60.171875 L 31.421875 -60.171875 C 33.191406 -63.816406 35.757812 -66.738281 39.125 -68.9375 C 42.488281 -71.132812 46.226562 -72.234375 50.34375 -72.234375 C 52.59375 -72.234375 54.234375 -72.046875 55.265625 -71.671875 L 54.28125 -51.46875 C 52.5 -51.9375 50.535156 -52.171875 48.390625 -52.171875 C 44.554688 -52.171875 41.421875 -51.304688 38.984375 -49.578125 C 36.554688 -47.847656 34.78125 -45.765625 33.65625 -43.328125 C 32.539062 -40.898438 31.984375 -38.566406 31.984375 -36.328125 L 31.984375 0 L 8.96875 0 Z M 8.96875 -52.453125 "/></g></g><g style="fill:#ffffff;fill-opacity:1;"><g transform="translate(590.150196, 181.206404)"><path style="stroke:none" d=""/></g></g><g style="fill:#ffffff;fill-opacity:1;"><g transform="translate(625.208467, 181.206404)"><path style="stroke:none" d=""/></g></g><g style="fill:#ffffff;fill-opacity:1;"><g transform="translate(660.266737, 181.206404)"><path style="stroke:none" d=""/></g></g><g style="fill:#ffffff;fill-opacity:1;"><g transform="translate(695.325008, 181.206404)"><path style="stroke:none" d=""/></g></g><g style="fill:#ffffff;fill-opacity:1;"><g transform="translate(730.383278, 181.206404)"><path style="stroke:none" d=""/></g></g><g style="fill:#ffffff;fill-opacity:1;"><g transform="translate(765.441549, 181.206404)"><path style="stroke:none" d=""/></g></g><g style="fill:#ffffff;fill-opacity:1;"><g transform="translate(800.499926, 181.206404)"><path style="stroke:none" d="M 33.65625 1.96875 C 27.769531 1.96875 22.910156 0.613281 19.078125 -2.09375 C 15.242188 -4.8125 12.484375 -8.320312 10.796875 -12.625 C 9.117188 -16.925781 8.28125 -21.597656 8.28125 -26.640625 L 8.28125 -70.265625 L 31.421875 -70.265625 L 31.421875 -31.984375 C 31.421875 -27.492188 32.191406 -23.890625 33.734375 -21.171875 C 35.273438 -18.460938 37.960938 -17.109375 41.796875 -17.109375 C 44.410156 -17.109375 46.628906 -17.785156 48.453125 -19.140625 C 50.273438 -20.492188 51.675781 -22.316406 52.65625 -24.609375 C 53.644531 -26.898438 54.140625 -29.40625 54.140625 -32.125 L 54.140625 -70.265625 L 77.140625 -70.265625 L 77.140625 0 L 54.984375 0 L 54.984375 -9.671875 L 54.703125 -9.671875 C 53.578125 -7.523438 51.984375 -5.585938 49.921875 -3.859375 C 47.867188 -2.128906 45.4375 -0.726562 42.625 0.34375 C 39.820312 1.425781 36.832031 1.96875 33.65625 1.96875 Z M 33.65625 1.96875 "/></g></g><g style="fill:#ffffff;fill-opacity:1;"><g transform="translate(886.603033, 181.206404)"><path style="stroke:none" d="M 44.171875 2.25 C 37.160156 2.25 30.6875 0.707031 24.75 -2.375 C 18.8125 -5.46875 14.113281 -9.863281 10.65625 -15.5625 C 7.195312 -21.269531 5.46875 -27.816406 5.46875 -35.203125 C 5.46875 -42.585938 7.195312 -49.082031 10.65625 -54.6875 C 14.113281 -60.300781 18.785156 -64.601562 24.671875 -67.59375 C 30.566406 -70.59375 37.066406 -72.09375 44.171875 -72.09375 C 51.285156 -72.09375 57.8125 -70.59375 63.75 -67.59375 C 69.6875 -64.601562 74.382812 -60.300781 77.84375 -54.6875 C 81.300781 -49.082031 83.03125 -42.585938 83.03125 -35.203125 C 83.03125 -27.816406 81.273438 -21.269531 77.765625 -15.5625 C 74.265625 -9.863281 69.566406 -5.46875 63.671875 -2.375 C 57.785156 0.707031 51.285156 2.25 44.171875 2.25 Z M 44.3125 -17.109375 C 47.78125 -17.109375 50.75 -17.972656 53.21875 -19.703125 C 55.695312 -21.429688 57.59375 -23.675781 58.90625 -26.4375 C 60.21875 -29.195312 60.875 -32.117188 60.875 -35.203125 C 60.875 -38.285156 60.21875 -41.179688 58.90625 -43.890625 C 57.59375 -46.609375 55.675781 -48.804688 53.15625 -50.484375 C 50.632812 -52.171875 47.640625 -53.015625 44.171875 -53.015625 C 40.710938 -53.015625 37.742188 -52.171875 35.265625 -50.484375 C 32.796875 -48.804688 30.925781 -46.609375 29.65625 -43.890625 C 28.394531 -41.179688 27.765625 -38.285156 27.765625 -35.203125 C 27.765625 -32.117188 28.421875 -29.195312 29.734375 -26.4375 C 31.046875 -23.675781 32.9375 -21.429688 35.40625 -19.703125 C 37.882812 -17.972656 40.851562 -17.109375 44.3125 -17.109375 Z M 44.3125 -17.109375 "/></g></g><g style="fill:#ffffff;fill-opacity:1;"><g transform="translate(975.230323, 181.206404)"><path style="stroke:none" d="M 36.328125 1.6875 C 27.441406 1.6875 21.082031 -0.460938 17.25 -4.765625 C 13.414062 -9.066406 11.5 -15.191406 11.5 -23.140625 L 11.5 -53.015625 L 0.28125 -53.015625 L 0.28125 -70.265625 L 11.359375 -70.265625 L 11.359375 -88.5 L 33.9375 -88.5 L 33.9375 -70.265625 L 50.34375 -70.265625 L 50.34375 -53.015625 L 33.9375 -53.015625 L 33.9375 -25.953125 C 33.9375 -22.578125 34.59375 -20.09375 35.90625 -18.5 C 37.21875 -16.914062 39.460938 -16.125 42.640625 -16.125 C 43.753906 -16.125 44.941406 -16.21875 46.203125 -16.40625 C 47.472656 -16.59375 48.53125 -16.875 49.375 -17.25 L 49.65625 -0.421875 C 48.0625 0.140625 46.023438 0.628906 43.546875 1.046875 C 41.066406 1.472656 38.660156 1.6875 36.328125 1.6875 Z M 36.328125 1.6875 "/></g></g><g style="fill:#ffffff;fill-opacity:1;"><g transform="translate(1027.397031, 181.206404)"><path style="stroke:none" d="M 43.890625 2.25 C 36.785156 2.25 30.3125 0.800781 24.46875 -2.09375 C 18.625 -5 13.992188 -9.253906 10.578125 -14.859375 C 7.171875 -20.472656 5.46875 -27.066406 5.46875 -34.640625 C 5.46875 -42.117188 7.125 -48.6875 10.4375 -54.34375 C 13.757812 -60 18.269531 -64.367188 23.96875 -67.453125 C 29.675781 -70.546875 36.085938 -72.09375 43.203125 -72.09375 C 50.117188 -72.09375 56.21875 -70.570312 61.5 -67.53125 C 66.78125 -64.488281 70.894531 -60.09375 73.84375 -54.34375 C 76.789062 -48.59375 78.265625 -41.835938 78.265625 -34.078125 C 78.265625 -31.554688 78.21875 -29.734375 78.125 -28.609375 L 27.484375 -28.609375 C 27.671875 -26.085938 28.582031 -23.820312 30.21875 -21.8125 C 31.851562 -19.800781 33.910156 -18.234375 36.390625 -17.109375 C 38.867188 -15.984375 41.460938 -15.421875 44.171875 -15.421875 C 47.640625 -15.421875 50.65625 -16.078125 53.21875 -17.390625 C 55.789062 -18.703125 57.921875 -20.476562 59.609375 -22.71875 L 75.59375 -12.625 C 72.226562 -7.851562 67.859375 -4.179688 62.484375 -1.609375 C 57.109375 0.960938 50.910156 2.25 43.890625 2.25 Z M 57.078125 -42.921875 C 57.078125 -45.441406 56.5625 -47.707031 55.53125 -49.71875 C 54.507812 -51.726562 52.945312 -53.316406 50.84375 -54.484375 C 48.738281 -55.648438 46.238281 -56.234375 43.34375 -56.234375 C 40.4375 -56.234375 37.816406 -55.625 35.484375 -54.40625 C 33.148438 -53.195312 31.28125 -51.585938 29.875 -49.578125 C 28.46875 -47.566406 27.671875 -45.347656 27.484375 -42.921875 Z M 57.078125 -42.921875 "/></g></g><g style="fill:#ffffff;fill-opacity:1;"><g transform="translate(582.867048, 258.812488)"><path style="stroke:none" d="M 30.125 -40.78125 L 30.125 -36.8125 L 10.96875 -36.8125 L 10.96875 -21.984375 L 28.203125 -21.984375 L 28.203125 -17.984375 L 10.96875 -17.984375 L 10.96875 0 L 6.171875 0 L 6.171875 -40.78125 Z M 30.125 -40.78125 "/></g></g><g style="fill:#ffffff;fill-opacity:1;"><g transform="translate(613.306786, 258.812488)"><path style="stroke:none" d="M 12.6875 0.578125 C 9.65625 0.578125 7.289062 -0.207031 5.59375 -1.78125 C 3.894531 -3.363281 3.046875 -5.625 3.046875 -8.5625 C 3.046875 -10.382812 3.421875 -11.921875 4.171875 -13.171875 C 4.921875 -14.429688 6.085938 -15.457031 7.671875 -16.25 C 9.253906 -17.039062 11.316406 -17.648438 13.859375 -18.078125 C 16.085938 -18.441406 17.785156 -18.859375 18.953125 -19.328125 C 20.117188 -19.796875 20.898438 -20.316406 21.296875 -20.890625 C 21.691406 -21.460938 21.890625 -22.1875 21.890625 -23.0625 C 21.890625 -24.457031 21.410156 -25.523438 20.453125 -26.265625 C 19.492188 -27.015625 17.957031 -27.390625 15.84375 -27.390625 C 13.851562 -27.390625 12.144531 -27.003906 10.71875 -26.234375 C 9.300781 -25.460938 8 -24.3125 6.8125 -22.78125 L 6.25 -22.78125 L 4.015625 -25.9375 C 5.316406 -27.59375 6.972656 -28.910156 8.984375 -29.890625 C 10.992188 -30.867188 13.28125 -31.359375 15.84375 -31.359375 C 19.46875 -31.359375 22.140625 -30.5625 23.859375 -28.96875 C 25.578125 -27.375 26.4375 -25.175781 26.4375 -22.375 L 26.4375 -6.046875 C 26.4375 -4.335938 27.164062 -3.484375 28.625 -3.484375 C 29.101562 -3.484375 29.566406 -3.566406 30.015625 -3.734375 L 30.40625 -3.625 L 30.9375 -0.46875 C 30.601562 -0.25 30.160156 -0.0820312 29.609375 0.03125 C 29.054688 0.15625 28.492188 0.21875 27.921875 0.21875 C 26.222656 0.21875 24.941406 -0.148438 24.078125 -0.890625 C 23.210938 -1.640625 22.660156 -2.738281 22.421875 -4.1875 L 21.84375 -4.234375 C 20.96875 -2.617188 19.785156 -1.410156 18.296875 -0.609375 C 16.804688 0.179688 14.9375 0.578125 12.6875 0.578125 Z M 13.703125 -3.046875 C 15.410156 -3.046875 16.890625 -3.4375 18.140625 -4.21875 C 19.398438 -5.007812 20.363281 -6.117188 21.03125 -7.546875 C 21.695312 -8.984375 22.03125 -10.644531 22.03125 -12.53125 L 22.03125 -16.421875 L 21.5 -16.546875 C 20.8125 -16.054688 19.972656 -15.648438 18.984375 -15.328125 C 18.003906 -15.003906 16.628906 -14.710938 14.859375 -14.453125 C 13.078125 -14.210938 11.660156 -13.835938 10.609375 -13.328125 C 9.554688 -12.828125 8.804688 -12.191406 8.359375 -11.421875 C 7.921875 -10.648438 7.703125 -9.695312 7.703125 -8.5625 C 7.703125 -6.757812 8.226562 -5.390625 9.28125 -4.453125 C 10.34375 -3.515625 11.816406 -3.046875 13.703125 -3.046875 Z M 13.703125 -3.046875 "/></g></g><g style="fill:#ffffff;fill-opacity:1;"><g transform="translate(645.113778, 258.812488)"><path style="stroke:none" d="M 14.03125 0.578125 C 12.09375 0.578125 10.300781 0.320312 8.65625 -0.1875 C 7.007812 -0.695312 5.617188 -1.394531 4.484375 -2.28125 C 3.359375 -3.175781 2.5625 -4.179688 2.09375 -5.296875 L 4.765625 -8.09375 L 5.359375 -8.09375 C 6.359375 -6.5625 7.5625 -5.410156 8.96875 -4.640625 C 10.382812 -3.867188 12.070312 -3.484375 14.03125 -3.484375 C 16.300781 -3.484375 18.023438 -3.925781 19.203125 -4.8125 C 20.378906 -5.695312 20.96875 -6.925781 20.96875 -8.5 C 20.96875 -9.71875 20.609375 -10.71875 19.890625 -11.5 C 19.179688 -12.289062 18.023438 -12.882812 16.421875 -13.28125 L 11.234375 -14.5625 C 8.460938 -15.226562 6.441406 -16.285156 5.171875 -17.734375 C 3.898438 -19.191406 3.265625 -20.988281 3.265625 -23.125 C 3.265625 -24.800781 3.691406 -26.253906 4.546875 -27.484375 C 5.398438 -28.722656 6.628906 -29.675781 8.234375 -30.34375 C 9.847656 -31.019531 11.757812 -31.359375 13.96875 -31.359375 C 16.800781 -31.359375 19.03125 -30.960938 20.65625 -30.171875 C 22.28125 -29.378906 23.550781 -28.273438 24.46875 -26.859375 L 21.890625 -24.34375 L 21.34375 -24.34375 C 20.351562 -25.476562 19.273438 -26.296875 18.109375 -26.796875 C 16.953125 -27.304688 15.570312 -27.5625 13.96875 -27.5625 C 11.945312 -27.5625 10.394531 -27.195312 9.3125 -26.46875 C 8.238281 -25.738281 7.703125 -24.6875 7.703125 -23.3125 C 7.703125 -22.070312 8.082031 -21.066406 8.84375 -20.296875 C 9.601562 -19.535156 10.929688 -18.925781 12.828125 -18.46875 L 17.9375 -17.234375 C 20.613281 -16.609375 22.546875 -15.554688 23.734375 -14.078125 C 24.921875 -12.609375 25.515625 -10.769531 25.515625 -8.5625 C 25.515625 -6.757812 25.085938 -5.171875 24.234375 -3.796875 C 23.378906 -2.421875 22.085938 -1.347656 20.359375 -0.578125 C 18.628906 0.191406 16.519531 0.578125 14.03125 0.578125 Z M 14.03125 0.578125 "/></g></g><g style="fill:#ffffff;fill-opacity:1;"><g transform="translate(673.547704, 258.812488)"><path style="stroke:none" d="M 20.8125 -4.875 L 22.265625 -1.625 C 21.535156 -0.894531 20.578125 -0.347656 19.390625 0.015625 C 18.210938 0.390625 16.9375 0.578125 15.5625 0.578125 C 9.6875 0.578125 6.75 -2.394531 6.75 -8.34375 L 6.75 -27.0625 L 1.390625 -27.0625 L 1.390625 -30.796875 L 6.75 -30.796875 L 6.75 -37.296875 L 11.296875 -38.046875 L 11.296875 -30.796875 L 21.203125 -30.796875 L 21.203125 -27.0625 L 11.296875 -27.0625 L 11.296875 -8.78125 C 11.296875 -5.25 12.832031 -3.484375 15.90625 -3.484375 C 17.570312 -3.484375 19.007812 -3.945312 20.21875 -4.875 Z M 20.8125 -4.875 "/></g></g><g style="fill:#ffffff;fill-opacity:1;"><g transform="translate(696.963879, 258.812488)"><path style="stroke:none" d=""/></g></g><g style="fill:#ffffff;fill-opacity:1;"><g transform="translate(710.957831, 258.812488)"><path style="stroke:none" d="M 6.171875 0 L 6.171875 -40.78125 L 20.96875 -40.78125 C 23.707031 -40.78125 26.003906 -40.328125 27.859375 -39.421875 C 29.722656 -38.523438 31.117188 -37.253906 32.046875 -35.609375 C 32.972656 -33.960938 33.4375 -32.015625 33.4375 -29.765625 C 33.4375 -27.234375 32.804688 -25.144531 31.546875 -23.5 C 30.285156 -21.851562 28.316406 -20.617188 25.640625 -19.796875 L 25.640625 -19.21875 C 26.953125 -18.695312 28.023438 -17.878906 28.859375 -16.765625 C 29.703125 -15.648438 30.476562 -13.984375 31.1875 -11.765625 L 34.953125 0 L 30.015625 0 L 25.9375 -12.46875 C 25.457031 -13.9375 24.898438 -15.085938 24.265625 -15.921875 C 23.628906 -16.765625 22.828125 -17.367188 21.859375 -17.734375 C 20.898438 -18.109375 19.675781 -18.296875 18.1875 -18.296875 L 10.96875 -18.296875 L 10.96875 0 Z M 20.859375 -22.375 C 23.410156 -22.375 25.304688 -22.960938 26.546875 -24.140625 C 27.796875 -25.316406 28.421875 -27.113281 28.421875 -29.53125 C 28.421875 -31.957031 27.796875 -33.757812 26.546875 -34.9375 C 25.304688 -36.113281 23.410156 -36.703125 20.859375 -36.703125 L 10.96875 -36.703125 L 10.96875 -22.375 Z M 20.859375 -22.375 "/></g></g><g style="fill:#ffffff;fill-opacity:1;"><g transform="translate(747.893479, 258.812488)"><path style="stroke:none" d="M 29.3125 -14.34375 L 8.171875 -14.34375 C 8.304688 -10.601562 9.203125 -7.859375 10.859375 -6.109375 C 12.523438 -4.359375 14.8125 -3.484375 17.71875 -3.484375 C 19.90625 -3.484375 21.664062 -3.875 23 -4.65625 C 24.34375 -5.4375 25.394531 -6.664062 26.15625 -8.34375 L 26.75 -8.34375 L 29.703125 -6.578125 C 28.816406 -4.347656 27.390625 -2.597656 25.421875 -1.328125 C 23.460938 -0.0546875 20.894531 0.578125 17.71875 0.578125 C 14.738281 0.578125 12.175781 -0.00390625 10.03125 -1.171875 C 7.894531 -2.335938 6.25 -4.109375 5.09375 -6.484375 C 3.945312 -8.867188 3.375 -11.832031 3.375 -15.375 C 3.375 -18.863281 3.984375 -21.804688 5.203125 -24.203125 C 6.421875 -26.609375 8.082031 -28.398438 10.1875 -29.578125 C 12.300781 -30.765625 14.71875 -31.359375 17.4375 -31.359375 C 21.375 -31.359375 24.445312 -30.242188 26.65625 -28.015625 C 28.875 -25.796875 29.992188 -22.5 30.015625 -18.125 C 30.015625 -16.414062 29.976562 -15.265625 29.90625 -14.671875 Z M 25.515625 -18.125 C 25.441406 -21.40625 24.71875 -23.785156 23.34375 -25.265625 C 21.96875 -26.753906 20 -27.5 17.4375 -27.5 C 14.738281 -27.5 12.617188 -26.75 11.078125 -25.25 C 9.546875 -23.757812 8.613281 -21.382812 8.28125 -18.125 Z M 25.515625 -18.125 "/></g></g><g style="fill:#ffffff;fill-opacity:1;"><g transform="translate(780.676123, 258.812488)"><path style="stroke:none" d="M 5.359375 12.46875 L 5.359375 -30.765625 L 9.90625 -30.765625 L 9.90625 -26.15625 L 10.484375 -26.046875 C 12.773438 -29.585938 16.132812 -31.359375 20.5625 -31.359375 C 23.125 -31.359375 25.363281 -30.769531 27.28125 -29.59375 C 29.195312 -28.425781 30.679688 -26.644531 31.734375 -24.25 C 32.796875 -21.863281 33.328125 -18.90625 33.328125 -15.375 C 33.328125 -11.851562 32.769531 -8.898438 31.65625 -6.515625 C 30.539062 -4.140625 29 -2.363281 27.03125 -1.1875 C 25.0625 -0.0078125 22.789062 0.578125 20.21875 0.578125 C 18.132812 0.578125 16.285156 0.21875 14.671875 -0.5 C 13.054688 -1.226562 11.660156 -2.421875 10.484375 -4.078125 L 9.90625 -3.953125 L 9.90625 12.46875 Z M 19.21875 -3.484375 C 25.445312 -3.484375 28.5625 -7.445312 28.5625 -15.375 C 28.5625 -23.3125 25.445312 -27.28125 19.21875 -27.28125 C 17.394531 -27.28125 15.785156 -26.859375 14.390625 -26.015625 C 12.992188 -25.179688 11.894531 -23.875 11.09375 -22.09375 C 10.300781 -20.320312 9.90625 -18.082031 9.90625 -15.375 C 9.90625 -12.675781 10.300781 -10.4375 11.09375 -8.65625 C 11.894531 -6.882812 12.992188 -5.578125 14.390625 -4.734375 C 15.785156 -3.898438 17.394531 -3.484375 19.21875 -3.484375 Z M 19.21875 -3.484375 "/></g></g><g style="fill:#ffffff;fill-opacity:1;"><g transform="translate(817.361464, 258.812488)"><path style="stroke:none" d="M 12.6875 0.578125 C 9.65625 0.578125 7.289062 -0.207031 5.59375 -1.78125 C 3.894531 -3.363281 3.046875 -5.625 3.046875 -8.5625 C 3.046875 -10.382812 3.421875 -11.921875 4.171875 -13.171875 C 4.921875 -14.429688 6.085938 -15.457031 7.671875 -16.25 C 9.253906 -17.039062 11.316406 -17.648438 13.859375 -18.078125 C 16.085938 -18.441406 17.785156 -18.859375 18.953125 -19.328125 C 20.117188 -19.796875 20.898438 -20.316406 21.296875 -20.890625 C 21.691406 -21.460938 21.890625 -22.1875 21.890625 -23.0625 C 21.890625 -24.457031 21.410156 -25.523438 20.453125 -26.265625 C 19.492188 -27.015625 17.957031 -27.390625 15.84375 -27.390625 C 13.851562 -27.390625 12.144531 -27.003906 10.71875 -26.234375 C 9.300781 -25.460938 8 -24.3125 6.8125 -22.78125 L 6.25 -22.78125 L 4.015625 -25.9375 C 5.316406 -27.59375 6.972656 -28.910156 8.984375 -29.890625 C 10.992188 -30.867188 13.28125 -31.359375 15.84375 -31.359375 C 19.46875 -31.359375 22.140625 -30.5625 23.859375 -28.96875 C 25.578125 -27.375 26.4375 -25.175781 26.4375 -22.375 L 26.4375 -6.046875 C 26.4375 -4.335938 27.164062 -3.484375 28.625 -3.484375 C 29.101562 -3.484375 29.566406 -3.566406 30.015625 -3.734375 L 30.40625 -3.625 L 30.9375 -0.46875 C 30.601562 -0.25 30.160156 -0.0820312 29.609375 0.03125 C 29.054688 0.15625 28.492188 0.21875 27.921875 0.21875 C 26.222656 0.21875 24.941406 -0.148438 24.078125 -0.890625 C 23.210938 -1.640625 22.660156 -2.738281 22.421875 -4.1875 L 21.84375 -4.234375 C 20.96875 -2.617188 19.785156 -1.410156 18.296875 -0.609375 C 16.804688 0.179688 14.9375 0.578125 12.6875 0.578125 Z M 13.703125 -3.046875 C 15.410156 -3.046875 16.890625 -3.4375 18.140625 -4.21875 C 19.398438 -5.007812 20.363281 -6.117188 21.03125 -7.546875 C 21.695312 -8.984375 22.03125 -10.644531 22.03125 -12.53125 L 22.03125 -16.421875 L 21.5 -16.546875 C 20.8125 -16.054688 19.972656 -15.648438 18.984375 -15.328125 C 18.003906 -15.003906 16.628906 -14.710938 14.859375 -14.453125 C 13.078125 -14.210938 11.660156 -13.835938 10.609375 -13.328125 C 9.554688 -12.828125 8.804688 -12.191406 8.359375 -11.421875 C 7.921875 -10.648438 7.703125 -9.695312 7.703125 -8.5625 C 7.703125 -6.757812 8.226562 -5.390625 9.28125 -4.453125 C 10.34375 -3.515625 11.816406 -3.046875 13.703125 -3.046875 Z M 13.703125 -3.046875 "/></g></g><g style="fill:#ffffff;fill-opacity:1;"><g transform="translate(849.168456, 258.812488)"><path style="stroke:none" d="M 7.640625 -36.703125 C 6.671875 -36.703125 5.882812 -37.003906 5.28125 -37.609375 C 4.675781 -38.210938 4.375 -38.984375 4.375 -39.921875 C 4.375 -40.847656 4.675781 -41.613281 5.28125 -42.21875 C 5.882812 -42.820312 6.671875 -43.125 7.640625 -43.125 C 8.609375 -43.125 9.394531 -42.820312 10 -42.21875 C 10.601562 -41.613281 10.90625 -40.847656 10.90625 -39.921875 C 10.90625 -38.984375 10.601562 -38.210938 10 -37.609375 C 9.394531 -37.003906 8.609375 -36.703125 7.640625 -36.703125 Z M 5.359375 0 L 5.359375 -30.765625 L 9.90625 -30.765625 L 9.90625 0 Z M 5.359375 0 "/></g></g><g style="fill:#ffffff;fill-opacity:1;"><g transform="translate(864.416867, 258.812488)"><path style="stroke:none" d="M 5.359375 0 L 5.359375 -30.765625 L 9.671875 -30.765625 L 9.671875 -25.9375 L 10.265625 -25.796875 C 11.691406 -29.296875 14.390625 -31.046875 18.359375 -31.046875 C 20.453125 -31.046875 22.019531 -30.664062 23.0625 -29.90625 L 21.890625 -26.046875 L 21.34375 -25.9375 C 20.1875 -26.519531 18.921875 -26.8125 17.546875 -26.8125 C 15.085938 -26.8125 13.195312 -25.890625 11.875 -24.046875 C 10.5625 -22.203125 9.90625 -19.21875 9.90625 -15.09375 L 9.90625 0 Z M 5.359375 0 "/></g></g><g style="fill:#ffffff;fill-opacity:1;"><g transform="translate(888.167559, 258.812488)"><path style="stroke:none" d=""/></g></g><g style="fill:#ffffff;fill-opacity:1;"><g transform="translate(902.161511, 258.812488)"><path style="stroke:none" d="M 32.796875 9.515625 C 29.410156 9.515625 26.585938 8.734375 24.328125 7.171875 C 22.078125 5.609375 20.492188 3.359375 19.578125 0.421875 C 16.515625 0.0234375 13.820312 -0.988281 11.5 -2.625 C 9.1875 -4.257812 7.367188 -6.566406 6.046875 -9.546875 C 4.734375 -12.535156 4.078125 -16.148438 4.078125 -20.390625 C 4.078125 -25.054688 4.863281 -28.957031 6.4375 -32.09375 C 8.019531 -35.226562 10.1875 -37.554688 12.9375 -39.078125 C 15.695312 -40.597656 18.84375 -41.359375 22.375 -41.359375 C 25.90625 -41.359375 29.046875 -40.597656 31.796875 -39.078125 C 34.546875 -37.554688 36.710938 -35.226562 38.296875 -32.09375 C 39.878906 -28.957031 40.671875 -25.054688 40.671875 -20.390625 C 40.671875 -14.015625 39.226562 -9.148438 36.34375 -5.796875 C 33.457031 -2.453125 29.515625 -0.484375 24.515625 0.109375 L 24.34375 0.703125 C 25.019531 2.242188 26.101562 3.40625 27.59375 4.1875 C 29.09375 4.96875 30.847656 5.359375 32.859375 5.359375 C 33.878906 5.359375 34.835938 5.226562 35.734375 4.96875 L 36.28125 5.078125 L 36.984375 8.78125 C 35.867188 9.269531 34.472656 9.515625 32.796875 9.515625 Z M 22.375 -3.84375 C 26.613281 -3.84375 29.863281 -5.164062 32.125 -7.8125 C 34.394531 -10.46875 35.53125 -14.660156 35.53125 -20.390625 C 35.53125 -26.117188 34.394531 -30.304688 32.125 -32.953125 C 29.863281 -35.609375 26.613281 -36.9375 22.375 -36.9375 C 13.59375 -36.9375 9.203125 -31.421875 9.203125 -20.390625 C 9.203125 -9.359375 13.59375 -3.84375 22.375 -3.84375 Z M 22.375 -3.84375 "/></g></g><g style="fill:#ffffff;fill-opacity:1;"><g transform="translate(946.875254, 258.812488)"><path style="stroke:none" d="M 15.203125 0.578125 C 11.722656 0.578125 9.128906 -0.335938 7.421875 -2.171875 C 5.722656 -4.015625 4.875 -6.710938 4.875 -10.265625 L 4.875 -30.765625 L 9.421875 -30.765625 L 9.421875 -10.375 C 9.421875 -5.707031 11.617188 -3.375 16.015625 -3.375 C 18.796875 -3.375 20.992188 -4.285156 22.609375 -6.109375 C 24.234375 -7.929688 25.046875 -10.890625 25.046875 -14.984375 L 25.046875 -30.765625 L 29.59375 -30.765625 L 29.59375 0 L 25.296875 0 L 25.296875 -4.828125 L 24.71875 -4.96875 C 23.65625 -3.082031 22.382812 -1.6875 20.90625 -0.78125 C 19.425781 0.125 17.523438 0.578125 15.203125 0.578125 Z M 15.203125 0.578125 "/></g></g><g style="fill:#ffffff;fill-opacity:1;"><g transform="translate(981.804403, 258.812488)"><path style="stroke:none" d="M 17.65625 0.578125 C 14.757812 0.578125 12.234375 -0.03125 10.078125 -1.25 C 7.929688 -2.476562 6.273438 -4.285156 5.109375 -6.671875 C 3.953125 -9.066406 3.375 -11.96875 3.375 -15.375 C 3.375 -18.769531 3.953125 -21.664062 5.109375 -24.0625 C 6.273438 -26.46875 7.929688 -28.285156 10.078125 -29.515625 C 12.234375 -30.742188 14.757812 -31.359375 17.65625 -31.359375 C 20.550781 -31.359375 23.070312 -30.742188 25.21875 -29.515625 C 27.375 -28.285156 29.03125 -26.46875 30.1875 -24.0625 C 31.351562 -21.664062 31.9375 -18.769531 31.9375 -15.375 C 31.9375 -11.96875 31.351562 -9.066406 30.1875 -6.671875 C 29.03125 -4.285156 27.375 -2.476562 25.21875 -1.25 C 23.070312 -0.03125 20.550781 0.578125 17.65625 0.578125 Z M 17.65625 -3.484375 C 20.726562 -3.484375 23.078125 -4.445312 24.703125 -6.375 C 26.328125 -8.3125 27.140625 -11.3125 27.140625 -15.375 C 27.140625 -19.445312 26.328125 -22.445312 24.703125 -24.375 C 23.078125 -26.3125 20.726562 -27.28125 17.65625 -27.28125 C 14.582031 -27.28125 12.226562 -26.304688 10.59375 -24.359375 C 8.957031 -22.421875 8.140625 -19.425781 8.140625 -15.375 C 8.140625 -11.3125 8.957031 -8.3125 10.59375 -6.375 C 12.226562 -4.445312 14.582031 -3.484375 17.65625 -3.484375 Z M 17.65625 -3.484375 "/></g></g><g style="fill:#ffffff;fill-opacity:1;"><g transform="translate(1017.095923, 258.812488)"><path style="stroke:none" d="M 20.8125 -4.875 L 22.265625 -1.625 C 21.535156 -0.894531 20.578125 -0.347656 19.390625 0.015625 C 18.210938 0.390625 16.9375 0.578125 15.5625 0.578125 C 9.6875 0.578125 6.75 -2.394531 6.75 -8.34375 L 6.75 -27.0625 L 1.390625 -27.0625 L 1.390625 -30.796875 L 6.75 -30.796875 L 6.75 -37.296875 L 11.296875 -38.046875 L 11.296875 -30.796875 L 21.203125 -30.796875 L 21.203125 -27.0625 L 11.296875 -27.0625 L 11.296875 -8.78125 C 11.296875 -5.25 12.832031 -3.484375 15.90625 -3.484375 C 17.570312 -3.484375 19.007812 -3.945312 20.21875 -4.875 Z M 20.8125 -4.875 "/></g></g><g style="fill:#ffffff;fill-opacity:1;"><g transform="translate(1040.149468, 258.812488)"><path style="stroke:none" d="M 29.3125 -14.34375 L 8.171875 -14.34375 C 8.304688 -10.601562 9.203125 -7.859375 10.859375 -6.109375 C 12.523438 -4.359375 14.8125 -3.484375 17.71875 -3.484375 C 19.90625 -3.484375 21.664062 -3.875 23 -4.65625 C 24.34375 -5.4375 25.394531 -6.664062 26.15625 -8.34375 L 26.75 -8.34375 L 29.703125 -6.578125 C 28.816406 -4.347656 27.390625 -2.597656 25.421875 -1.328125 C 23.460938 -0.0546875 20.894531 0.578125 17.71875 0.578125 C 14.738281 0.578125 12.175781 -0.00390625 10.03125 -1.171875 C 7.894531 -2.335938 6.25 -4.109375 5.09375 -6.484375 C 3.945312 -8.867188 3.375 -11.832031 3.375 -15.375 C 3.375 -18.863281 3.984375 -21.804688 5.203125 -24.203125 C 6.421875 -26.609375 8.082031 -28.398438 10.1875 -29.578125 C 12.300781 -30.765625 14.71875 -31.359375 17.4375 -31.359375 C 21.375 -31.359375 24.445312 -30.242188 26.65625 -28.015625 C 28.875 -25.796875 29.992188 -22.5 30.015625 -18.125 C 30.015625 -16.414062 29.976562 -15.265625 29.90625 -14.671875 Z M 25.515625 -18.125 C 25.441406 -21.40625 24.71875 -23.785156 23.34375 -25.265625 C 21.96875 -26.753906 20 -27.5 17.4375 -27.5 C 14.738281 -27.5 12.617188 -26.75 11.078125 -25.25 C 9.546875 -23.757812 8.613281 -21.382812 8.28125 -18.125 Z M 25.515625 -18.125 "/></g></g><g style="fill:#ffffff;fill-opacity:1;"><g transform="translate(1072.932113, 258.812488)"><path style="stroke:none" d="M 14.03125 0.578125 C 12.09375 0.578125 10.300781 0.320312 8.65625 -0.1875 C 7.007812 -0.695312 5.617188 -1.394531 4.484375 -2.28125 C 3.359375 -3.175781 2.5625 -4.179688 2.09375 -5.296875 L 4.765625 -8.09375 L 5.359375 -8.09375 C 6.359375 -6.5625 7.5625 -5.410156 8.96875 -4.640625 C 10.382812 -3.867188 12.070312 -3.484375 14.03125 -3.484375 C 16.300781 -3.484375 18.023438 -3.925781 19.203125 -4.8125 C 20.378906 -5.695312 20.96875 -6.925781 20.96875 -8.5 C 20.96875 -9.71875 20.609375 -10.71875 19.890625 -11.5 C 19.179688 -12.289062 18.023438 -12.882812 16.421875 -13.28125 L 11.234375 -14.5625 C 8.460938 -15.226562 6.441406 -16.285156 5.171875 -17.734375 C 3.898438 -19.191406 3.265625 -20.988281 3.265625 -23.125 C 3.265625 -24.800781 3.691406 -26.253906 4.546875 -27.484375 C 5.398438 -28.722656 6.628906 -29.675781 8.234375 -30.34375 C 9.847656 -31.019531 11.757812 -31.359375 13.96875 -31.359375 C 16.800781 -31.359375 19.03125 -30.960938 20.65625 -30.171875 C 22.28125 -29.378906 23.550781 -28.273438 24.46875 -26.859375 L 21.890625 -24.34375 L 21.34375 -24.34375 C 20.351562 -25.476562 19.273438 -26.296875 18.109375 -26.796875 C 16.953125 -27.304688 15.570312 -27.5625 13.96875 -27.5625 C 11.945312 -27.5625 10.394531 -27.195312 9.3125 -26.46875 C 8.238281 -25.738281 7.703125 -24.6875 7.703125 -23.3125 C 7.703125 -22.070312 8.082031 -21.066406 8.84375 -20.296875 C 9.601562 -19.535156 10.929688 -18.925781 12.828125 -18.46875 L 17.9375 -17.234375 C 20.613281 -16.609375 22.546875 -15.554688 23.734375 -14.078125 C 24.921875 -12.609375 25.515625 -10.769531 25.515625 -8.5625 C 25.515625 -6.757812 25.085938 -5.171875 24.234375 -3.796875 C 23.378906 -2.421875 22.085938 -1.347656 20.359375 -0.578125 C 18.628906 0.191406 16.519531 0.578125 14.03125 0.578125 Z M 14.03125 0.578125 "/></g></g></g></svg>